<svg id="Layer_1" data-name="Layer 1" xmlns="http://www.w3.org/2000/svg" xmlns:xlink="http://www.w3.org/1999/xlink" viewBox="0 0 357.5 285.44"><defs><style>.cls-1,.cls-16,.cls-18,.cls-3,.cls-9{fill:none;}.cls-11,.cls-2{font-size:10px;}.cls-2,.cls-4,.cls-6,.cls-8{fill:#d08062;}.cls-11,.cls-14,.cls-2{font-family:ArialMT, Arial;}.cls-3,.cls-8{stroke:#d08062;}.cls-16,.cls-18,.cls-3,.cls-5,.cls-6,.cls-7,.cls-8,.cls-9{stroke-miterlimit:10;}.cls-10,.cls-11,.cls-5{fill:#5169af;}.cls-16,.cls-18,.cls-5,.cls-6,.cls-7{stroke:#231f20;}.cls-14,.cls-17,.cls-7{fill:#231f20;}.cls-9{stroke:#5169af;}.cls-12{clip-path:url(#clip-path);}.cls-13{clip-path:url(#clip-path-2);}.cls-14{font-size:12px;}.cls-15{letter-spacing:-0.11em;}.cls-16{stroke-width:2px;}</style><clipPath id="clip-path"><rect class="cls-1" x="65.6" y="238.96" width="230.79" height="50.54"/></clipPath><clipPath id="clip-path-2"><rect class="cls-1" x="80.75" y="238.96" width="206.67" height="77.46"/></clipPath></defs><title>PoolSchematic</title><text class="cls-2" transform="translate(133.13 185.23)">melt_tail_length</text><line class="cls-3" x1="233.73" y1="168.92" x2="102.58" y2="168.92"/><polygon class="cls-4" points="227.82 165.74 227.48 166.68 233.63 168.92 227.48 171.16 227.82 172.1 236.56 168.92 227.82 165.74"/><polygon class="cls-4" points="108.49 165.74 108.83 166.68 102.67 168.92 108.83 171.16 108.49 172.1 99.75 168.92 108.49 165.74"/><line class="cls-3" x1="236.56" y1="163.59" x2="236.56" y2="174.26"/><line class="cls-3" x1="99.75" y1="163.59" x2="99.75" y2="174.26"/><path class="cls-5" d="M237.74,60.7c30.9,0,55.95,22.16,55.95,49.49s-25,49.49-55.95,49.49c-93,0-168.41-22.16-168.41-49.49S144.73,60.7,237.74,60.7Z"/><path class="cls-6" d="M236.77,69.87c25.18,0,45.59,18.06,45.59,40.33s-20.41,40.33-45.59,40.33c-75.79,0-137.23-18.06-137.23-40.33S161,69.87,236.77,69.87Z"/><circle class="cls-7" cx="236.34" cy="110.19" r="3.57"/><text class="cls-2" transform="translate(235.19 185.23)">cap_height</text><line class="cls-3" x1="279.94" y1="168.92" x2="239.36" y2="168.92"/><polygon class="cls-4" points="274.03 165.74 273.69 166.68 279.84 168.92 273.69 171.16 274.03 172.1 282.77 168.92 274.03 165.74"/><polygon class="cls-4" points="245.28 165.74 245.62 166.68 239.46 168.92 245.62 171.16 245.28 172.1 236.54 168.92 245.28 165.74"/><line class="cls-8" x1="282.77" y1="163.59" x2="282.77" y2="174.26"/><line class="cls-8" x1="236.54" y1="163.59" x2="236.54" y2="174.26"/><line class="cls-3" x1="302.36" y1="72.69" x2="302.36" y2="147.7"/><polygon class="cls-4" points="299.18 78.6 300.12 78.94 302.36 72.79 304.6 78.94 305.54 78.6 302.36 69.87 299.18 78.6"/><polygon class="cls-4" points="299.18 141.78 300.12 141.44 302.36 147.6 304.6 141.44 305.54 141.78 302.36 150.52 299.18 141.78"/><line class="cls-3" x1="295.64" y1="69.87" x2="309.08" y2="69.87"/><line class="cls-3" x1="295.64" y1="150.52" x2="309.08" y2="150.52"/><text class="cls-2" transform="translate(307.27 110.19)">spot_width</text><line class="cls-9" x1="60.92" y1="64.48" x2="60.92" y2="156.86"/><polygon class="cls-10" points="57.74 70.39 58.68 70.74 60.92 64.58 63.16 70.74 64.1 70.39 60.92 61.66 57.74 70.39"/><polygon class="cls-10" points="57.74 150.95 58.68 150.6 60.92 156.76 63.16 150.6 64.1 150.95 60.92 159.68 57.74 150.95"/><line class="cls-9" x1="54.2" y1="61.66" x2="67.63" y2="61.66"/><line class="cls-9" x1="54.2" y1="159.68" x2="67.63" y2="159.68"/><text class="cls-11" transform="translate(34.85 110.19)">HAZ</text><text class="cls-11" transform="translate(133.77 41.51)">tail_HAZ</text><line class="cls-9" x1="233.73" y1="49.2" x2="72.16" y2="49.2"/><polygon class="cls-10" points="227.82 46.02 227.48 46.96 233.63 49.2 227.48 51.44 227.82 52.38 236.56 49.2 227.82 46.02"/><polygon class="cls-10" points="78.07 46.02 78.41 46.96 72.26 49.2 78.41 51.44 78.07 52.38 69.33 49.2 78.07 46.02"/><line class="cls-9" x1="236.56" y1="43.87" x2="236.56" y2="54.54"/><line class="cls-9" x1="69.33" y1="43.87" x2="69.33" y2="54.54"/><text class="cls-11" transform="translate(245.56 41.51)">cap_HAZ</text><line class="cls-9" x1="291.27" y1="49.2" x2="239.36" y2="49.2"/><polygon class="cls-10" points="285.36 46.02 285.02 46.96 291.18 49.2 285.02 51.44 285.36 52.38 294.1 49.2 285.36 46.02"/><polygon class="cls-10" points="245.28 46.02 245.62 46.96 239.46 49.2 245.62 51.44 245.28 52.38 236.54 49.2 245.28 46.02"/><line class="cls-9" x1="294.1" y1="43.87" x2="294.1" y2="54.54"/><line class="cls-9" x1="236.54" y1="43.87" x2="236.54" y2="54.54"/><g class="cls-12"><path class="cls-5" d="M237.63,200.62c30.74,0,56.47,10,56.47,35.77s-25.73,43.21-56.47,43.21c-92.53,0-167.55-20.92-167.55-46.74s75-46.74,167.55-46.74"/></g><g class="cls-13"><path class="cls-6" d="M237.52,198.63c25.18,0,44.59,18.06,44.59,40.33s-19.41,27.82-44.59,27.82C161.73,266.78,94,248.72,94,226.45s67.73-40.33,143.52-40.33"/></g><circle class="cls-7" cx="236.52" cy="239.08" r="3.57"/><line class="cls-3" x1="302.61" y1="241.9" x2="302.61" y2="263.95"/><polygon class="cls-4" points="299.43 247.81 300.37 248.16 302.61 242 304.85 248.16 305.79 247.81 302.61 239.08 299.43 247.81"/><polygon class="cls-4" points="299.43 258.04 300.37 257.7 302.61 263.86 304.85 257.7 305.79 258.04 302.61 266.78 299.43 258.04"/><line class="cls-3" x1="295.89" y1="239.08" x2="309.33" y2="239.08"/><line class="cls-3" x1="295.89" y1="266.78" x2="309.33" y2="266.78"/><text class="cls-2" transform="translate(307.27 255.21)">melt_depth</text><line class="cls-9" x1="62.62" y1="241.9" x2="62.62" y2="276.77"/><polygon class="cls-10" points="59.44 247.81 60.38 248.16 62.62 242 64.86 248.16 65.8 247.81 62.62 239.08 59.44 247.81"/><polygon class="cls-10" points="59.44 270.86 60.38 270.52 62.62 276.67 64.86 270.52 65.8 270.86 62.62 279.6 59.44 270.86"/><line class="cls-9" x1="55.9" y1="239.08" x2="69.33" y2="239.08"/><line class="cls-9" x1="55.9" y1="279.6" x2="69.33" y2="279.6"/><text class="cls-11" transform="translate(4.27 256.21)">depth_HAZ</text><text class="cls-14" transform="translate(3.5 222.5)">Longitudinal view</text><text class="cls-14" transform="translate(3.5 32.5)"><tspan class="cls-15">T</tspan><tspan x="6" y="0">op view</tspan></text><line class="cls-16" x1="242.38" y1="16.5" x2="297.23" y2="16.5"/><polygon class="cls-17" points="311.36 16.5 291.46 24.63 296.18 16.5 291.46 8.37 311.36 16.5"/><text class="cls-14" transform="translate(208.95 12.5)">Pass<tspan x="0" y="14.4">direction</tspan></text><path class="cls-18" d="M212.05,190.75c0-14.11-4.18-38.33,5.95-55.2a165.37,165.37,0,0,1,11.15-16.27"/><polygon class="cls-17" points="233 114.5 230.36 123.47 228.88 119.66 224.84 119.06 233 114.5"/><path class="cls-18" d="M212.05,210.5c0,7.08.66,8.88,6.83,14.72a90.93,90.93,0,0,0,7.21,5.54"/><polygon class="cls-17" points="231.24 234.11 222.06 232.29 225.73 230.47 225.96 226.39 231.24 234.11"/><text class="cls-14" transform="translate(184.95 203.89)">Pool origin</text></svg>