<?xml version="1.0" encoding="UTF-8" standalone="no"?>
<!-- Created with Inkscape (http://www.inkscape.org/) -->

<svg
   xmlns:ns0="http://www.iki.fi/pav/software/textext/"
   xmlns:dc="http://purl.org/dc/elements/1.1/"
   xmlns:cc="http://creativecommons.org/ns#"
   xmlns:rdf="http://www.w3.org/1999/02/22-rdf-syntax-ns#"
   xmlns:svg="http://www.w3.org/2000/svg"
   xmlns="http://www.w3.org/2000/svg"
   xmlns:xlink="http://www.w3.org/1999/xlink"
   xmlns:sodipodi="http://sodipodi.sourceforge.net/DTD/sodipodi-0.dtd"
   xmlns:inkscape="http://www.inkscape.org/namespaces/inkscape"
   width="286.05646"
   height="396.52542"
   viewBox="0 0 286.05646 396.52542"
   id="svg2"
   version="1.1"
   inkscape:version="0.91 r13725"
   sodipodi:docname="teardrop_case_I.svg"
   inkscape:export-filename="/home/jamitch/jaks.git/gitsync_spparks.cloned/doc/JPG/teardrop_case_I.png"
   inkscape:export-xdpi="62.924641"
   inkscape:export-ydpi="62.924641">
  <sodipodi:namedview
     id="base"
     pagecolor="#ffffff"
     bordercolor="#666666"
     borderopacity="1.0"
     inkscape:pageopacity="0.0"
     inkscape:pageshadow="2"
     inkscape:zoom="1.6745458"
     inkscape:cx="144.37485"
     inkscape:cy="198.26271"
     inkscape:document-units="px"
     inkscape:current-layer="layer1"
     showgrid="false"
     showborder="false"
     fit-margin-top="0"
     fit-margin-left="0"
     fit-margin-right="0"
     fit-margin-bottom="0"
     inkscape:window-width="1165"
     inkscape:window-height="968"
     inkscape:window-x="569"
     inkscape:window-y="104"
     inkscape:window-maximized="0"
     units="px" />
  <defs
     id="defs4">
    <clipPath
       id="clipPath3375"
       clipPathUnits="userSpaceOnUse">
      <path
         inkscape:connector-curvature="0"
         id="path3377"
         d="m 936,617.398 4329,0 0,3440 -4329,0 0,-3440 z" />
    </clipPath>
    <clipPath
       id="clipPath3507"
       clipPathUnits="userSpaceOnUse">
      <path
         inkscape:connector-curvature="0"
         id="path3509"
         d="" />
    </clipPath>
    <clipPath
       clipPathUnits="userSpaceOnUse"
       id="clipPath4504">
      <rect
         style="opacity:1;fill:none;fill-opacity:1;stroke:#0000ff;stroke-width:1.60000002;stroke-miterlimit:4;stroke-dasharray:none;stroke-dashoffset:0"
         id="rect4506"
         width="232.56624"
         height="365.59412"
         x="192.97278"
         y="-432.32654"
         transform="scale(1,-1)" />
    </clipPath>
    <clipPath
       id="clipPath4604"
       clipPathUnits="userSpaceOnUse">
      <path
         inkscape:connector-curvature="0"
         id="path4606"
         d="m 936,617.398 4329,0 0,3440 -4329,0 0,-3440 z" />
    </clipPath>
    <clipPath
       id="clipPath4736"
       clipPathUnits="userSpaceOnUse">
      <path
         inkscape:connector-curvature="0"
         id="path4738"
         d="" />
    </clipPath>
    <clipPath
       clipPathUnits="userSpaceOnUse"
       id="clipPath4933">
      <rect
         style="opacity:1;fill:none;fill-opacity:1;stroke:#0000ff;stroke-width:1.60000002;stroke-miterlimit:4;stroke-dasharray:none;stroke-dashoffset:0"
         id="rect4935"
         width="237.21756"
         height="324.66245"
         x="191.1481"
         y="-397.71594"
         transform="scale(1,-1)" />
    </clipPath>
    <clipPath
       id="clipPath4995"
       clipPathUnits="userSpaceOnUse">
      <path
         inkscape:connector-curvature="0"
         id="path4997"
         d="m 936,617.398 4329,0 0,3440 -4329,0 0,-3440 z" />
    </clipPath>
    <clipPath
       id="clipPath5095"
       clipPathUnits="userSpaceOnUse">
      <path
         inkscape:connector-curvature="0"
         id="path5097"
         d="" />
    </clipPath>
    <clipPath
       clipPathUnits="userSpaceOnUse"
       id="clipPath5246">
      <rect
         style="opacity:1;fill:none;fill-opacity:1;stroke:#0000ff;stroke-width:1.60000002;stroke-miterlimit:4;stroke-dasharray:none;stroke-dashoffset:0"
         id="rect5248"
         width="190.70432"
         height="328.38351"
         x="215.28802"
         y="-398.18112"
         transform="scale(1,-1)" />
    </clipPath>
    <clipPath
       id="clipPath5293"
       clipPathUnits="userSpaceOnUse">
      <path
         inkscape:connector-curvature="0"
         id="path5295"
         d="m 936,617.398 4329,0 0,3440 -4329,0 0,-3440 z" />
    </clipPath>
    <clipPath
       id="clipPath5425"
       clipPathUnits="userSpaceOnUse">
      <path
         inkscape:connector-curvature="0"
         id="path5427"
         d="" />
    </clipPath>
    <clipPath
       clipPathUnits="userSpaceOnUse"
       id="clipPath5619">
      <rect
         style="opacity:1;fill:none;fill-opacity:1;stroke:#0000ff;stroke-width:1.60000002;stroke-miterlimit:4;stroke-dasharray:none;stroke-dashoffset:0"
         id="rect5621"
         width="128.37656"
         height="270.70709"
         x="246.8634"
         y="-367.94748"
         transform="scale(1,-1)" />
    </clipPath>
    <clipPath
       id="clipPath5662"
       clipPathUnits="userSpaceOnUse">
      <path
         inkscape:connector-curvature="0"
         id="path5664"
         d="m 936,617.398 4329,0 0,3440 -4329,0 0,-3440 z" />
    </clipPath>
    <clipPath
       id="clipPath5794"
       clipPathUnits="userSpaceOnUse">
      <path
         inkscape:connector-curvature="0"
         id="path5796"
         d="" />
    </clipPath>
    <clipPath
       clipPathUnits="userSpaceOnUse"
       id="clipPath5988">
      <rect
         style="opacity:1;fill:none;fill-opacity:1;stroke:#0000ff;stroke-width:1.60000002;stroke-miterlimit:4;stroke-dasharray:none;stroke-dashoffset:0"
         id="rect5990"
         width="128.37654"
         height="268.84659"
         x="245.98672"
         y="-369.3429"
         transform="scale(1,-1)" />
    </clipPath>
    <clipPath
       id="clipPath6031"
       clipPathUnits="userSpaceOnUse">
      <path
         inkscape:connector-curvature="0"
         id="path6033"
         d="m 936,617.398 4329,0 0,3440 -4329,0 0,-3440 z" />
    </clipPath>
    <clipPath
       id="clipPath6131"
       clipPathUnits="userSpaceOnUse">
      <path
         inkscape:connector-curvature="0"
         id="path6133"
         d="" />
    </clipPath>
    <clipPath
       clipPathUnits="userSpaceOnUse"
       id="clipPath6282">
      <rect
         style="opacity:1;fill:none;fill-opacity:1;stroke:#0000ff;stroke-width:1.60000002;stroke-miterlimit:4;stroke-dasharray:none;stroke-dashoffset:0"
         id="rect6284"
         width="184.19247"
         height="324.66245"
         x="218.5535"
         y="-396.26923"
         transform="scale(1,-1)" />
    </clipPath>
    <clipPath
       id="clipPath6325"
       clipPathUnits="userSpaceOnUse">
      <path
         inkscape:connector-curvature="0"
         id="path6327"
         d="m 936,617.398 4329,0 0,3440 -4329,0 0,-3440 z" />
    </clipPath>
    <clipPath
       id="clipPath6457"
       clipPathUnits="userSpaceOnUse">
      <path
         inkscape:connector-curvature="0"
         id="path6459"
         d="" />
    </clipPath>
    <clipPath
       clipPathUnits="userSpaceOnUse"
       id="clipPath6654">
      <rect
         style="opacity:1;fill:none;fill-opacity:1;stroke:#0000ff;stroke-width:1.60000002;stroke-miterlimit:4;stroke-dasharray:none;stroke-dashoffset:0"
         id="rect6656"
         width="228.84517"
         height="317.22034"
         x="195.75246"
         y="-391.66925"
         transform="scale(1,-1)" />
    </clipPath>
  </defs>
  <metadata
     id="metadata7">
    <rdf:RDF>
      <cc:Work
         rdf:about="">
        <dc:format>image/svg+xml</dc:format>
        <dc:type
           rdf:resource="http://purl.org/dc/dcmitype/StillImage" />
        <dc:title />
      </cc:Work>
    </rdf:RDF>
  </metadata>
  <g
     inkscape:label="Layer 1"
     inkscape:groupmode="layer"
     id="layer1"
     transform="translate(-250.48514,15.116793)">
    <g
       transform="matrix(1.25,0,0,-1.25,5.7945655,474.46977)"
       inkscape:label="ink_ext_XXXXXX"
       id="g6313"
       clip-path="url(#clipPath6654)">
      <g
         transform="scale(0.1,0.1)"
         id="g6315">
        <path
           inkscape:connector-curvature="0"
           id="path6317"
           style="fill:#ffffff;fill-opacity:1;fill-rule:nonzero;stroke:none"
           d="m 0,0 5850,0 0,4410.01 -5850,0 L 0,0 Z" />
        <path
           inkscape:connector-curvature="0"
           id="path6319"
           style="fill:#ffffff;fill-opacity:1;fill-rule:nonzero;stroke:none"
           d="m 936,617.402 4329,0 0,3439.82 -4329,0 0,-3439.82 z" />
        <g
           id="g6321">
          <g
             clip-path="url(#clipPath6325)"
             id="g6323">
            <path
               inkscape:connector-curvature="0"
               id="path6329"
               style="fill:none;stroke:#0000ff;stroke-width:34.99990082;stroke-linecap:square;stroke-linejoin:round;stroke-miterlimit:10;stroke-dasharray:none;stroke-opacity:1"
               d="m 3100.5,806.41 29.21,0.91 29.2,2.703 29.15,4.465 29.1,6.188 29.02,7.875 28.9,9.531 28.79,11.148 28.64,12.735 28.48,14.273 28.31,15.789 28.08,17.266 27.87,18.703 27.64,20.109 27.35,21.477 27.1,22.809 26.8,24.109 26.46,25.36 26.13,26.59 25.79,27.78 25.39,28.93 25,30.04 24.62,31.13 24.15,32.16 23.73,33.18 23.25,34.14 22.78,35.08 22.26,35.97 21.75,36.84 21.21,37.66 20.64,38.44 20.09,39.2 19.52,39.91 18.88,40.58 18.26,41.23 17.62,41.82 16.96,42.4 16.29,42.92 15.6,43.41 14.91,43.87 14.2,44.28 13.42,44.66 12.68,45.01 11.93,45.31 11.12,45.57 10.33,45.81 9.5,46 8.68,46.15 7.84,46.27 6.94,46.35 6.1,46.39 5.2,46.38 4.28,46.37 3.35,46.27 2.44,46.18 1.48,46.02 0.51,45.86 -0.46,45.59 -1.48,45.34 -2.46,45.06 -3.49,44.73 -4.53,44.31 -5.58,43.91 -6.64,43.47 -7.71,42.96 -8.81,42.42 -9.91,41.86 -11.02,41.26 -12.17,40.61 -13.27,39.91 -14.44,39.16 -15.6,38.43 -16.81,37.63 -17.98,36.76 -19.19,35.89 -20.39,34.99 -21.62,33.99 -22.85,32.99 -24.13,32 -25.36,30.87 -26.64,29.76 -27.92,28.62 -29.23,27.41 -30.53,26.18 -31.84,24.89 -33.17,23.59 -34.54,22.24 -35.86,20.83 -37.22,19.39 -38.6,17.9 -39.96,16.42 -41.38,14.83 -42.77,13.27 -44.17,11.61 -45.59,9.94 -47.04,8.22 -48.46,6.48 -49.9,4.66 -51.39,2.85 -52.82,0.95" />
            <path
               inkscape:connector-curvature="0"
               id="path6331"
               style="fill:none;stroke:#0000ff;stroke-width:35;stroke-linecap:square;stroke-linejoin:round;stroke-miterlimit:10;stroke-dasharray:none;stroke-opacity:1"
               d="m 3100.5,806.41 -29.23,0.91 -29.19,2.703 -29.14,4.465 -29.12,6.188 -29,7.879 -28.91,9.531 -28.78,11.148 -28.65,12.727 -28.47,14.277 -28.31,15.793 -28.1,17.262 -27.86,18.707 -27.62,20.105 -27.39,21.477 -27.08,22.809 -26.79,24.109 -26.48,25.36 -26.13,26.59 -25.77,27.78 -25.4,28.93 -25.01,30.04 -24.61,31.13 -24.16,32.16 -23.73,33.18 -23.23,34.14 -22.78,35.08 -22.26,35.97 -21.75,36.84 -21.21,37.66 -20.66,38.44 -20.08,39.2 -19.5,39.91 -18.88,40.58 -18.27,41.23 -17.63,41.82 -16.96,42.4 -16.3,42.92 -15.6,43.41 -14.9,43.87 -14.18,44.28 -13.44,44.66 -12.68,45.01 -11.92,45.31 -11.13,45.57 -10.32,45.81 -9.51,46 -8.68,46.15 -7.83,46.27 -6.96,46.35 -6.09,46.39 -5.19,46.38 -4.29,46.37 -3.36,46.27 -2.43,46.18 -1.48,46.02 -0.51,45.85 0.47,45.61 1.47,45.35 2.47,45.04 3.49,44.71 4.53,44.33 5.58,43.93 6.64,43.45 7.71,42.95 8.81,42.43 9.9,41.87 11.03,41.24 12.15,40.6 13.29,39.92 14.44,39.18 15.61,38.42 16.79,37.61 17.98,36.79 19.18,35.88 20.39,34.98 21.63,34 22.86,33.02 24.11,31.96 25.37,30.88 26.64,29.75 27.93,28.63 29.23,27.41 30.52,26.19 31.85,24.9 33.17,23.59 34.53,22.21 35.86,20.84 37.21,19.38 38.61,17.92 39.96,16.4 41.37,14.85 42.79,13.25 44.16,11.63 45.59,9.94 47.03,8.21 48.46,6.48 49.91,4.65 51.38,2.85 52.84,0.95" />
          </g>
        </g>
        <path
           inkscape:connector-curvature="0"
           id="path6333"
           style="fill:none;stroke:#000000;stroke-width:9.99999046;stroke-linecap:square;stroke-linejoin:miter;stroke-miterlimit:10;stroke-dasharray:none;stroke-opacity:1"
           d="M 936,617.402 936,4057.2" />
        <path
           inkscape:connector-curvature="0"
           id="path6335"
           style="fill:none;stroke:#000000;stroke-width:10;stroke-linecap:square;stroke-linejoin:miter;stroke-miterlimit:10;stroke-dasharray:none;stroke-opacity:1"
           d="m 936,4057.22 4329,0" />
        <path
           inkscape:connector-curvature="0"
           id="path6337"
           style="fill:none;stroke:#000000;stroke-width:10;stroke-linecap:square;stroke-linejoin:miter;stroke-miterlimit:10;stroke-dasharray:none;stroke-opacity:1"
           d="m 936,617.402 4329,0" />
        <path
           inkscape:connector-curvature="0"
           id="path6339"
           style="fill:none;stroke:#000000;stroke-width:10;stroke-linecap:square;stroke-linejoin:miter;stroke-miterlimit:10;stroke-dasharray:none;stroke-opacity:1"
           d="m 5265,617.402 0,3439.818" />
        <path
           inkscape:connector-curvature="0"
           id="path6341"
           style="fill:#000000;fill-opacity:1;fill-rule:nonzero;stroke:none"
           d="m 950.625,617.398 0,40" />
        <path
           inkscape:connector-curvature="0"
           id="path6343"
           style="fill:none;stroke:#000000;stroke-width:5;stroke-linecap:butt;stroke-linejoin:round;stroke-miterlimit:10;stroke-dasharray:none;stroke-opacity:1"
           d="m 950.625,617.398 0,40" />
        <path
           inkscape:connector-curvature="0"
           id="path6345"
           style="fill:#000000;fill-opacity:1;fill-rule:nonzero;stroke:none"
           d="m 950.621,4057.2 0,-40" />
        <path
           inkscape:connector-curvature="0"
           id="path6347"
           style="fill:none;stroke:#000000;stroke-width:4.99997997;stroke-linecap:butt;stroke-linejoin:round;stroke-miterlimit:10;stroke-dasharray:none;stroke-opacity:1"
           d="m 950.621,4057.2 0,-40" />
        <path
           inkscape:connector-curvature="0"
           id="path6349"
           style="fill:#000000;fill-opacity:1;fill-rule:nonzero;stroke:none"
           d="m 2025.55,617.398 0,40" />
        <path
           inkscape:connector-curvature="0"
           id="path6351"
           style="fill:none;stroke:#000000;stroke-width:4.99998999;stroke-linecap:butt;stroke-linejoin:round;stroke-miterlimit:10;stroke-dasharray:none;stroke-opacity:1"
           d="m 2025.55,617.398 0,40" />
        <path
           inkscape:connector-curvature="0"
           id="path6353"
           style="fill:#000000;fill-opacity:1;fill-rule:nonzero;stroke:none"
           d="m 2025.56,4057.2 0,-40" />
        <path
           inkscape:connector-curvature="0"
           id="path6355"
           style="fill:none;stroke:#000000;stroke-width:4.99997997;stroke-linecap:butt;stroke-linejoin:round;stroke-miterlimit:10;stroke-dasharray:none;stroke-opacity:1"
           d="m 2025.56,4057.2 0,-40" />
        <path
           inkscape:connector-curvature="0"
           id="path6357"
           style="fill:#000000;fill-opacity:1;fill-rule:nonzero;stroke:none"
           d="m 3100.5,617.398 0,40" />
        <path
           inkscape:connector-curvature="0"
           id="path6359"
           style="fill:none;stroke:#000000;stroke-width:5;stroke-linecap:butt;stroke-linejoin:round;stroke-miterlimit:10;stroke-dasharray:none;stroke-opacity:1"
           d="m 3100.5,617.398 0,40" />
        <path
           inkscape:connector-curvature="0"
           id="path6361"
           style="fill:#000000;fill-opacity:1;fill-rule:nonzero;stroke:none"
           d="m 3100.49,4057.2 0,-40" />
        <path
           inkscape:connector-curvature="0"
           id="path6363"
           style="fill:none;stroke:#000000;stroke-width:4.99997997;stroke-linecap:butt;stroke-linejoin:round;stroke-miterlimit:10;stroke-dasharray:none;stroke-opacity:1"
           d="m 3100.49,4057.2 0,-40" />
        <path
           inkscape:connector-curvature="0"
           id="path6365"
           style="fill:#000000;fill-opacity:1;fill-rule:nonzero;stroke:none"
           d="m 4175.43,617.398 0,40" />
        <path
           inkscape:connector-curvature="0"
           id="path6367"
           style="fill:none;stroke:#000000;stroke-width:4.99998999;stroke-linecap:butt;stroke-linejoin:round;stroke-miterlimit:10;stroke-dasharray:none;stroke-opacity:1"
           d="m 4175.43,617.398 0,40" />
        <path
           inkscape:connector-curvature="0"
           id="path6369"
           style="fill:#000000;fill-opacity:1;fill-rule:nonzero;stroke:none"
           d="m 4175.43,4057.19 0,-39.99" />
        <path
           inkscape:connector-curvature="0"
           id="path6371"
           style="fill:none;stroke:#000000;stroke-width:4.99998999;stroke-linecap:butt;stroke-linejoin:round;stroke-miterlimit:10;stroke-dasharray:none;stroke-opacity:1"
           d="m 4175.43,4057.19 0,-39.99" />
        <path
           inkscape:connector-curvature="0"
           id="path6373"
           style="fill:#000000;fill-opacity:1;fill-rule:nonzero;stroke:none"
           d="m 5250.38,617.398 0,40" />
        <path
           inkscape:connector-curvature="0"
           id="path6375"
           style="fill:none;stroke:#000000;stroke-width:5;stroke-linecap:butt;stroke-linejoin:round;stroke-miterlimit:10;stroke-dasharray:none;stroke-opacity:1"
           d="m 5250.38,617.398 0,40" />
        <path
           inkscape:connector-curvature="0"
           id="path6377"
           style="fill:#000000;fill-opacity:1;fill-rule:nonzero;stroke:none"
           d="m 5250.38,4057.19 0,-40.01" />
        <path
           inkscape:connector-curvature="0"
           id="path6379"
           style="fill:none;stroke:#000000;stroke-width:5;stroke-linecap:butt;stroke-linejoin:round;stroke-miterlimit:10;stroke-dasharray:none;stroke-opacity:1"
           d="m 5250.38,4057.19 0,-40.01" />
        <path
           inkscape:connector-curvature="0"
           id="path6381"
           style="fill:#000000;fill-opacity:1;fill-rule:nonzero;stroke:none"
           d="m 936,617.398 40,0" />
        <path
           inkscape:connector-curvature="0"
           id="path6383"
           style="fill:none;stroke:#000000;stroke-width:5;stroke-linecap:butt;stroke-linejoin:round;stroke-miterlimit:10;stroke-dasharray:none;stroke-opacity:1"
           d="m 936,617.398 40,0" />
        <path
           inkscape:connector-curvature="0"
           id="path6385"
           style="fill:#000000;fill-opacity:1;fill-rule:nonzero;stroke:none"
           d="m 5265,617.402 -39.98,0" />
        <path
           inkscape:connector-curvature="0"
           id="path6387"
           style="fill:none;stroke:#000000;stroke-width:5.00001001;stroke-linecap:butt;stroke-linejoin:round;stroke-miterlimit:10;stroke-dasharray:none;stroke-opacity:1"
           d="m 5265,617.402 -39.98,0" />
        <path
           inkscape:connector-curvature="0"
           id="path6389"
           style="fill:#000000;fill-opacity:1;fill-rule:nonzero;stroke:none"
           d="m 936,1047.38 40,0" />
        <path
           inkscape:connector-curvature="0"
           id="path6391"
           style="fill:none;stroke:#000000;stroke-width:5;stroke-linecap:butt;stroke-linejoin:round;stroke-miterlimit:10;stroke-dasharray:none;stroke-opacity:1"
           d="m 936,1047.38 40,0" />
        <path
           inkscape:connector-curvature="0"
           id="path6393"
           style="fill:#000000;fill-opacity:1;fill-rule:nonzero;stroke:none"
           d="m 5265,1047.38 -39.98,0" />
        <path
           inkscape:connector-curvature="0"
           id="path6395"
           style="fill:none;stroke:#000000;stroke-width:5.00001001;stroke-linecap:butt;stroke-linejoin:round;stroke-miterlimit:10;stroke-dasharray:none;stroke-opacity:1"
           d="m 5265,1047.38 -39.98,0" />
        <path
           inkscape:connector-curvature="0"
           id="path6397"
           style="fill:#000000;fill-opacity:1;fill-rule:nonzero;stroke:none"
           d="m 936,1477.36 40,0" />
        <path
           inkscape:connector-curvature="0"
           id="path6399"
           style="fill:none;stroke:#000000;stroke-width:5;stroke-linecap:butt;stroke-linejoin:round;stroke-miterlimit:10;stroke-dasharray:none;stroke-opacity:1"
           d="m 936,1477.36 40,0" />
        <path
           inkscape:connector-curvature="0"
           id="path6401"
           style="fill:#000000;fill-opacity:1;fill-rule:nonzero;stroke:none"
           d="m 5265,1477.35 -39.98,0" />
        <path
           inkscape:connector-curvature="0"
           id="path6403"
           style="fill:none;stroke:#000000;stroke-width:5.00001001;stroke-linecap:butt;stroke-linejoin:round;stroke-miterlimit:10;stroke-dasharray:none;stroke-opacity:1"
           d="m 5265,1477.35 -39.98,0" />
        <path
           inkscape:connector-curvature="0"
           id="path6405"
           style="fill:#000000;fill-opacity:1;fill-rule:nonzero;stroke:none"
           d="m 936,1907.33 40,0" />
        <path
           inkscape:connector-curvature="0"
           id="path6407"
           style="fill:none;stroke:#000000;stroke-width:5;stroke-linecap:butt;stroke-linejoin:round;stroke-miterlimit:10;stroke-dasharray:none;stroke-opacity:1"
           d="m 936,1907.33 40,0" />
        <path
           inkscape:connector-curvature="0"
           id="path6409"
           style="fill:#000000;fill-opacity:1;fill-rule:nonzero;stroke:none"
           d="m 5265,1907.33 -39.98,0" />
        <path
           inkscape:connector-curvature="0"
           id="path6411"
           style="fill:none;stroke:#000000;stroke-width:5.00001001;stroke-linecap:butt;stroke-linejoin:round;stroke-miterlimit:10;stroke-dasharray:none;stroke-opacity:1"
           d="m 5265,1907.33 -39.98,0" />
        <path
           inkscape:connector-curvature="0"
           id="path6413"
           style="fill:#000000;fill-opacity:1;fill-rule:nonzero;stroke:none"
           d="m 936,2337.3 40,0" />
        <path
           inkscape:connector-curvature="0"
           id="path6415"
           style="fill:none;stroke:#000000;stroke-width:5.00001001;stroke-linecap:butt;stroke-linejoin:round;stroke-miterlimit:10;stroke-dasharray:none;stroke-opacity:1"
           d="m 936,2337.3 40,0" />
        <path
           inkscape:connector-curvature="0"
           id="path6417"
           style="fill:#000000;fill-opacity:1;fill-rule:nonzero;stroke:none"
           d="m 5265,2337.3 -39.98,0" />
        <path
           inkscape:connector-curvature="0"
           id="path6419"
           style="fill:none;stroke:#000000;stroke-width:5.00001001;stroke-linecap:butt;stroke-linejoin:round;stroke-miterlimit:10;stroke-dasharray:none;stroke-opacity:1"
           d="m 5265,2337.3 -39.98,0" />
        <path
           inkscape:connector-curvature="0"
           id="path6421"
           style="fill:#000000;fill-opacity:1;fill-rule:nonzero;stroke:none"
           d="m 935.996,2767.27 40,0" />
        <path
           inkscape:connector-curvature="0"
           id="path6423"
           style="fill:none;stroke:#000000;stroke-width:4.99997997;stroke-linecap:butt;stroke-linejoin:round;stroke-miterlimit:10;stroke-dasharray:none;stroke-opacity:1"
           d="m 935.996,2767.27 40,0" />
        <path
           inkscape:connector-curvature="0"
           id="path6425"
           style="fill:#000000;fill-opacity:1;fill-rule:nonzero;stroke:none"
           d="m 5265,2767.28 -39.98,0" />
        <path
           inkscape:connector-curvature="0"
           id="path6427"
           style="fill:none;stroke:#000000;stroke-width:5.00001001;stroke-linecap:butt;stroke-linejoin:round;stroke-miterlimit:10;stroke-dasharray:none;stroke-opacity:1"
           d="m 5265,2767.28 -39.98,0" />
        <path
           inkscape:connector-curvature="0"
           id="path6429"
           style="fill:#000000;fill-opacity:1;fill-rule:nonzero;stroke:none"
           d="m 936.004,3197.26 40,0" />
        <path
           inkscape:connector-curvature="0"
           id="path6431"
           style="fill:none;stroke:#000000;stroke-width:5.00002003;stroke-linecap:butt;stroke-linejoin:round;stroke-miterlimit:10;stroke-dasharray:none;stroke-opacity:1"
           d="m 936.004,3197.26 40,0" />
        <path
           inkscape:connector-curvature="0"
           id="path6433"
           style="fill:#000000;fill-opacity:1;fill-rule:nonzero;stroke:none"
           d="m 5265,3197.25 -39.98,0" />
        <path
           inkscape:connector-curvature="0"
           id="path6435"
           style="fill:none;stroke:#000000;stroke-width:5.00001001;stroke-linecap:butt;stroke-linejoin:round;stroke-miterlimit:10;stroke-dasharray:none;stroke-opacity:1"
           d="m 5265,3197.25 -39.98,0" />
        <path
           inkscape:connector-curvature="0"
           id="path6437"
           style="fill:#000000;fill-opacity:1;fill-rule:nonzero;stroke:none"
           d="m 936,3627.23 40,0" />
        <path
           inkscape:connector-curvature="0"
           id="path6439"
           style="fill:none;stroke:#000000;stroke-width:4.99998999;stroke-linecap:butt;stroke-linejoin:round;stroke-miterlimit:10;stroke-dasharray:none;stroke-opacity:1"
           d="m 936,3627.23 40,0" />
        <path
           inkscape:connector-curvature="0"
           id="path6441"
           style="fill:#000000;fill-opacity:1;fill-rule:nonzero;stroke:none"
           d="m 5265,3627.23 -39.98,0" />
        <path
           inkscape:connector-curvature="0"
           id="path6443"
           style="fill:none;stroke:#000000;stroke-width:5.00001001;stroke-linecap:butt;stroke-linejoin:round;stroke-miterlimit:10;stroke-dasharray:none;stroke-opacity:1"
           d="m 5265,3627.23 -39.98,0" />
        <path
           inkscape:connector-curvature="0"
           id="path6445"
           style="fill:#000000;fill-opacity:1;fill-rule:nonzero;stroke:none"
           d="m 936,4057.2 40,0" />
        <path
           inkscape:connector-curvature="0"
           id="path6447"
           style="fill:none;stroke:#000000;stroke-width:4.99997997;stroke-linecap:butt;stroke-linejoin:round;stroke-miterlimit:10;stroke-dasharray:none;stroke-opacity:1"
           d="m 936,4057.2 40,0" />
        <path
           inkscape:connector-curvature="0"
           id="path6449"
           style="fill:#000000;fill-opacity:1;fill-rule:nonzero;stroke:none"
           d="m 5265,4057.22 -39.98,0" />
        <path
           inkscape:connector-curvature="0"
           id="path6451"
           style="fill:none;stroke:#000000;stroke-width:5.00001001;stroke-linecap:butt;stroke-linejoin:round;stroke-miterlimit:10;stroke-dasharray:none;stroke-opacity:1"
           d="m 5265,4057.22 -39.98,0" />
        <g
           id="g6453">
          <g
             clip-path="url(#clipPath6457)"
             id="g6455">
            <g
               transform="matrix(960,0,0,-4.8,-958.92,3128.28)"
               id="g6461">
              <rect
                 id="rect6463"
                 style="fill:#231f20;fill-opacity:1;fill-rule:nonzero"
                 transform="matrix(1,0,0,-1,0,1)"
                 height="1"
                 width="1"
                 y="0"
                 x="0" />
            </g>
          </g>
        </g>
        <g
           transform="scale(10,10)"
           id="g6465">
          <text
             id="text6467"
             style="font-variant:normal;font-weight:normal;font-size:23.91040039px;font-family:CMSY10;-inkscape-font-specification:CMSY10;writing-mode:lr-tb;fill:#000000;fill-opacity:1;fill-rule:nonzero;stroke:none"
             transform="matrix(1,0,0,-1,69.3148,40.7512)">
            <tspan
               id="tspan6469"
               y="0"
               x="0">−</tspan>
          </text>
          <text
             id="text6471"
             style="font-variant:normal;font-weight:normal;font-size:23.91040039px;font-family:CMR17;-inkscape-font-specification:CMR17;writing-mode:lr-tb;fill:#000000;fill-opacity:1;fill-rule:nonzero;stroke:none"
             transform="matrix(1,0,0,-1,87.9148,40.7512)">
            <tspan
               id="tspan6473"
               sodipodi:role="line"
               y="0"
               x="0 10.919927 21.839848">100</tspan>
          </text>
          <text
             id="text6475"
             style="font-variant:normal;font-weight:normal;font-size:23.91040039px;font-family:CMSY10;-inkscape-font-specification:CMSY10;writing-mode:lr-tb;fill:#000000;fill-opacity:1;fill-rule:nonzero;stroke:none"
             transform="matrix(1,0,0,-1,182.2918,40.7512)">
            <tspan
               id="tspan6477"
               y="0"
               x="0">−</tspan>
          </text>
          <text
             id="text6479"
             style="font-variant:normal;font-weight:normal;font-size:23.91040039px;font-family:CMR17;-inkscape-font-specification:CMR17;writing-mode:lr-tb;fill:#000000;fill-opacity:1;fill-rule:nonzero;stroke:none"
             transform="matrix(1,0,0,-1,200.8918,40.7512)">
            <tspan
               id="tspan6481"
               sodipodi:role="line"
               y="0"
               x="0 10.919933">50</tspan>
            <tspan
               id="tspan6483"
               sodipodi:role="line"
               y="0.0472656"
               x="103.675 205.6861 216.606 307.69696 318.61688 329.5368">050100</tspan>
          </text>
          <text
             id="text6485"
             style="font-variant:normal;font-size:23.91040039px;font-family:'Nimbus Sans L';-inkscape-font-specification:NimbusSanL-Regu;writing-mode:lr-tb;fill:#000000;fill-opacity:1;fill-rule:nonzero;stroke:none"
             transform="matrix(1,0,0,-1,242.9699,13.080134)">
            <tspan
               id="tspan6487"
               sodipodi:role="line"
               y="0"
               x="0 12 19.919926 33.239841 45.239841 50.519924 69.119919 77.039848 89.039848 94.319923 100.91992 114.23984 126.23984">x-axis(sites)</tspan>
          </text>
          <text
             id="text6489"
             style="font-variant:normal;font-weight:normal;font-size:23.91040039px;font-family:CMSY10;-inkscape-font-specification:CMSY10;writing-mode:lr-tb;fill:#000000;fill-opacity:1;fill-rule:nonzero;stroke:none"
             transform="matrix(1,0,0,-1,49.0719,55.816034)">
            <tspan
               id="tspan6491"
               y="0"
               x="0">−</tspan>
          </text>
          <text
             id="text6493"
             style="font-variant:normal;font-weight:normal;font-size:23.91040039px;font-family:CMR17;-inkscape-font-specification:CMR17;writing-mode:lr-tb;fill:#000000;fill-opacity:1;fill-rule:nonzero;stroke:none"
             transform="matrix(1,0,0,-1,67.6719,55.816034)">
            <tspan
               id="tspan6495"
               sodipodi:role="line"
               y="0"
               x="0 10.919927">80</tspan>
          </text>
          <text
             id="text6497"
             style="font-variant:normal;font-weight:normal;font-size:23.91040039px;font-family:CMSY10;-inkscape-font-specification:CMSY10;writing-mode:lr-tb;fill:#000000;fill-opacity:1;fill-rule:nonzero;stroke:none"
             transform="matrix(1,0,0,-1,49.0719,98.693034)">
            <tspan
               id="tspan6499"
               y="0"
               x="0">−</tspan>
          </text>
          <text
             id="text6501"
             style="font-variant:normal;font-weight:normal;font-size:23.91040039px;font-family:CMR17;-inkscape-font-specification:CMR17;writing-mode:lr-tb;fill:#000000;fill-opacity:1;fill-rule:nonzero;stroke:none"
             transform="matrix(1,0,0,-1,67.6719,98.693034)">
            <tspan
               id="tspan6503"
               sodipodi:role="line"
               y="0"
               x="0 10.919927">60</tspan>
          </text>
          <text
             id="text6505"
             style="font-variant:normal;font-weight:normal;font-size:23.91040039px;font-family:CMSY10;-inkscape-font-specification:CMSY10;writing-mode:lr-tb;fill:#000000;fill-opacity:1;fill-rule:nonzero;stroke:none"
             transform="matrix(1,0,0,-1,49.0719,141.81103)">
            <tspan
               id="tspan6507"
               y="0"
               x="0">−</tspan>
          </text>
          <text
             id="text6509"
             style="font-variant:normal;font-weight:normal;font-size:23.91040039px;font-family:CMR17;-inkscape-font-specification:CMR17;writing-mode:lr-tb;fill:#000000;fill-opacity:1;fill-rule:nonzero;stroke:none"
             transform="matrix(1,0,0,-1,67.6719,141.81103)">
            <tspan
               id="tspan6511"
               sodipodi:role="line"
               y="0"
               x="0 10.919927">40</tspan>
          </text>
          <text
             id="text6513"
             style="font-variant:normal;font-weight:normal;font-size:23.91040039px;font-family:CMSY10;-inkscape-font-specification:CMSY10;writing-mode:lr-tb;fill:#000000;fill-opacity:1;fill-rule:nonzero;stroke:none"
             transform="matrix(1,0,0,-1,49.0719,184.80793)">
            <tspan
               id="tspan6515"
               y="0"
               x="0">−</tspan>
          </text>
          <text
             id="text6517"
             style="font-variant:normal;font-weight:normal;font-size:23.91040039px;font-family:CMR17;-inkscape-font-specification:CMR17;writing-mode:lr-tb;fill:#000000;fill-opacity:1;fill-rule:nonzero;stroke:none"
             transform="matrix(1,0,0,-1,67.6719,184.80793)">
            <tspan
               id="tspan6519"
               sodipodi:role="line"
               y="0"
               x="0 10.919927">20</tspan>
            <tspan
               id="tspan6521"
               y="-42.950001"
               x="10.9621">0</tspan>
            <tspan
               id="tspan6523"
               sodipodi:role="line"
               y="-85.947998"
               x="-0.0027000001 10.917227">20</tspan>
            <tspan
               id="tspan6525"
               sodipodi:role="line"
               y="-128.9449"
               x="-0.0027000001 10.917227">40</tspan>
            <tspan
               id="tspan6527"
               sodipodi:role="line"
               y="-171.9429"
               x="-0.0027000001 10.917227">60</tspan>
            <tspan
               id="tspan6529"
               sodipodi:role="line"
               y="-214.9398"
               x="-0.0027000001 10.917227">80</tspan>
          </text>
          <text
             id="text6531"
             style="font-variant:normal;font-size:23.91040039px;font-family:'Nimbus Sans L';-inkscape-font-specification:NimbusSanL-Regu;writing-mode:lr-tb;fill:#000000;fill-opacity:1;fill-rule:nonzero;stroke:none"
             transform="matrix(0,1,1,0,33.9391,161.557)">
            <tspan
               id="tspan6533"
               sodipodi:role="line"
               y="0"
               x="0 12 19.919926 33.239853 45.239853 50.519936 69.119934 77.039856 89.039856 94.319939 100.91994 114.23985 126.23985">y-axis(sites)</tspan>
          </text>
          <text
             id="text6535"
             style="font-variant:normal;font-size:23.91040039px;font-family:'Nimbus Sans L';-inkscape-font-specification:NimbusSanL-Regu;writing-mode:lr-tb;fill:#000000;fill-opacity:1;fill-rule:nonzero;stroke:none"
             transform="matrix(1,0,0,-1,227.763,410.667)">
            <tspan
               id="tspan6537"
               sodipodi:role="line"
               y="0"
               x="0 11.760163 25.080078 38.399994 46.31992 59.639835 67.559761 80.879677 100.67966 112.67966 125.99958 137.99957 157.91949">TeardropcaseI</tspan>
          </text>
        </g>
      </g>
    </g>
    <g
       id="g9665"
       transform="matrix(6.2772958,0,0,6.2772958,-1096.0559,-715.48173)"
       ns0:preamble="/home/jamitch/jaks.git/conferences.cloned/ornl.nlmodels.cse.october.2015/images/inkscape_preamble.tex"
       ns0:text="Case I\n\n\n">
      <defs
         id="defs9667">
        <g
           id="g9669">
          <symbol
             id="textext-feb32ba8-0"
             overflow="visible"
             style="overflow:visible">
            <path
               id="path9672"
               d=""
               style="stroke:none"
               inkscape:connector-curvature="0" />
          </symbol>
          <symbol
             id="textext-feb32ba8-1"
             overflow="visible"
             style="overflow:visible">
            <path
               id="path9675"
               d="m 0.5625,-3.40625 c 0,2.0625 1.609375,3.625 3.46875,3.625 1.625,0 2.59375,-1.390625 2.59375,-2.546875 C 6.625,-2.421875 6.625,-2.5 6.5,-2.5 6.390625,-2.5 6.390625,-2.4375 6.375,-2.328125 6.296875,-0.90625 5.234375,-0.09375 4.140625,-0.09375 c -0.609375,0 -2.5625,-0.328125 -2.5625,-3.3125 0,-2.96875 1.953125,-3.3125 2.5625,-3.3125 1.078125,0 1.96875,0.90625 2.171875,2.359375 0.015625,0.140625 0.015625,0.171875 0.15625,0.171875 0.15625,0 0.15625,-0.03125 0.15625,-0.234375 l 0,-2.359375 c 0,-0.171875 0,-0.25 -0.109375,-0.25 -0.03125,0 -0.078125,0 -0.15625,0.125 l -0.5,0.734375 C 5.5,-6.53125 4.984375,-7.03125 4.03125,-7.03125 c -1.875,0 -3.46875,1.59375 -3.46875,3.625 z m 0,0"
               style="stroke:none"
               inkscape:connector-curvature="0" />
          </symbol>
          <symbol
             id="textext-feb32ba8-2"
             overflow="visible"
             style="overflow:visible">
            <path
               id="path9678"
               d="m 3.3125,-0.75 c 0.046875,0.390625 0.3125,0.8125 0.78125,0.8125 0.21875,0 0.828125,-0.140625 0.828125,-0.953125 l 0,-0.5625 -0.25,0 0,0.5625 c 0,0.578125 -0.25,0.640625 -0.359375,0.640625 -0.328125,0 -0.375,-0.453125 -0.375,-0.5 l 0,-1.984375 c 0,-0.421875 0,-0.8125 -0.359375,-1.1875 C 3.1875,-4.3125 2.6875,-4.46875 2.21875,-4.46875 c -0.828125,0 -1.515625,0.46875 -1.515625,1.125 0,0.296875 0.203125,0.46875 0.46875,0.46875 0.28125,0 0.453125,-0.203125 0.453125,-0.453125 0,-0.125 -0.046875,-0.453125 -0.515625,-0.453125 C 1.390625,-4.140625 1.875,-4.25 2.1875,-4.25 c 0.5,0 1.0625,0.390625 1.0625,1.28125 l 0,0.359375 c -0.515625,0.03125 -1.203125,0.0625 -1.828125,0.359375 -0.75,0.34375 -1,0.859375 -1,1.296875 0,0.8125 0.96875,1.0625 1.59375,1.0625 0.65625,0 1.109375,-0.40625 1.296875,-0.859375 z M 3.25,-2.390625 l 0,1 c 0,0.9375 -0.71875,1.28125 -1.171875,1.28125 -0.484375,0 -0.890625,-0.34375 -0.890625,-0.84375 0,-0.546875 0.421875,-1.375 2.0625,-1.4375 z m 0,0"
               style="stroke:none"
               inkscape:connector-curvature="0" />
          </symbol>
          <symbol
             id="textext-feb32ba8-3"
             overflow="visible"
             style="overflow:visible">
            <path
               id="path9681"
               d="m 2.078125,-1.9375 c 0.21875,0.046875 1.03125,0.203125 1.03125,0.921875 0,0.5 -0.34375,0.90625 -1.125,0.90625 -0.84375,0 -1.203125,-0.5625 -1.390625,-1.421875 C 0.5625,-1.65625 0.5625,-1.6875 0.453125,-1.6875 c -0.125,0 -0.125,0.0625 -0.125,0.234375 l 0,1.328125 c 0,0.171875 0,0.234375 0.109375,0.234375 0.046875,0 0.0625,-0.015625 0.25,-0.203125 0.015625,-0.015625 0.015625,-0.03125 0.203125,-0.21875 0.4375,0.40625 0.890625,0.421875 1.09375,0.421875 1.140625,0 1.609375,-0.671875 1.609375,-1.390625 0,-0.515625 -0.296875,-0.828125 -0.421875,-0.9375 C 2.84375,-2.546875 2.453125,-2.625 2.03125,-2.703125 1.46875,-2.8125 0.8125,-2.9375 0.8125,-3.515625 c 0,-0.359375 0.25,-0.765625 1.109375,-0.765625 1.09375,0 1.15625,0.90625 1.171875,1.203125 0,0.09375 0.09375,0.09375 0.109375,0.09375 0.140625,0 0.140625,-0.046875 0.140625,-0.234375 l 0,-1.015625 c 0,-0.15625 0,-0.234375 -0.109375,-0.234375 -0.046875,0 -0.078125,0 -0.203125,0.125 -0.03125,0.03125 -0.125,0.125 -0.171875,0.15625 -0.375,-0.28125 -0.78125,-0.28125 -0.9375,-0.28125 -1.21875,0 -1.59375,0.671875 -1.59375,1.234375 0,0.34375 0.15625,0.625 0.421875,0.84375 0.328125,0.25 0.609375,0.3125 1.328125,0.453125 z m 0,0"
               style="stroke:none"
               inkscape:connector-curvature="0" />
          </symbol>
          <symbol
             id="textext-feb32ba8-4"
             overflow="visible"
             style="overflow:visible">
            <path
               id="path9684"
               d="M 1.109375,-2.515625 C 1.171875,-4 2.015625,-4.25 2.359375,-4.25 c 1.015625,0 1.125,1.34375 1.125,1.734375 z m 0,0.21875 2.78125,0 c 0.21875,0 0.25,0 0.25,-0.21875 0,-0.984375 -0.546875,-1.953125 -1.78125,-1.953125 -1.15625,0 -2.078125,1.03125 -2.078125,2.28125 0,1.328125 1.046875,2.296875 2.1875,2.296875 C 3.6875,0.109375 4.140625,-1 4.140625,-1.1875 4.140625,-1.28125 4.0625,-1.3125 4,-1.3125 c -0.078125,0 -0.109375,0.0625 -0.125,0.140625 -0.34375,1.03125 -1.25,1.03125 -1.34375,1.03125 -0.5,0 -0.890625,-0.296875 -1.125,-0.671875 -0.296875,-0.46875 -0.296875,-1.125 -0.296875,-1.484375 z m 0,0"
               style="stroke:none"
               inkscape:connector-curvature="0" />
          </symbol>
          <symbol
             id="textext-feb32ba8-5"
             overflow="visible"
             style="overflow:visible">
            <path
               id="path9687"
               d="M 2.25,-6.03125 C 2.25,-6.390625 2.265625,-6.5 3.0625,-6.5 l 0.25,0 0,-0.3125 c -0.34375,0.03125 -1.125,0.03125 -1.515625,0.03125 -0.375,0 -1.171875,0 -1.515625,-0.03125 l 0,0.3125 0.25,0 c 0.796875,0 0.828125,0.109375 0.828125,0.46875 l 0,5.25 c 0,0.359375 -0.03125,0.46875 -0.828125,0.46875 l -0.25,0 0,0.3125 c 0.34375,-0.03125 1.140625,-0.03125 1.515625,-0.03125 0.390625,0 1.171875,0 1.515625,0.03125 l 0,-0.3125 -0.25,0 C 2.265625,-0.3125 2.25,-0.421875 2.25,-0.78125 Z m 0,0"
               style="stroke:none"
               inkscape:connector-curvature="0" />
          </symbol>
        </g>
      </defs>
      <g
         id="textext-feb32ba8-6">
        <g
           id="g9690"
           style="fill:#000000;fill-opacity:1">
          <use
             id="use9692"
             y="134.765"
             x="223.43201"
             xlink:href="#textext-feb32ba8-1"
             width="100%"
             height="100%" />
          <use
             id="use9694"
             y="134.765"
             x="230.62698"
             xlink:href="#textext-feb32ba8-2"
             width="100%"
             height="100%" />
          <use
             id="use9696"
             y="134.765"
             x="235.60829"
             xlink:href="#textext-feb32ba8-3"
             width="100%"
             height="100%" />
          <use
             id="use9698"
             y="134.765"
             x="239.53754"
             xlink:href="#textext-feb32ba8-4"
             width="100%"
             height="100%" />
        </g>
        <g
           id="g9700"
           style="fill:#000000;fill-opacity:1">
          <use
             id="use9702"
             y="134.765"
             x="247.28247"
             xlink:href="#textext-feb32ba8-5"
             width="100%"
             height="100%" />
        </g>
      </g>
    </g>
  </g>
</svg>
