<?xml version="1.0" encoding="UTF-8" standalone="no"?>
<!-- Created with Inkscape (http://www.inkscape.org/) -->

<svg
   xmlns:ns0="http://www.iki.fi/pav/software/textext/"
   xmlns:dc="http://purl.org/dc/elements/1.1/"
   xmlns:cc="http://creativecommons.org/ns#"
   xmlns:rdf="http://www.w3.org/1999/02/22-rdf-syntax-ns#"
   xmlns:svg="http://www.w3.org/2000/svg"
   xmlns="http://www.w3.org/2000/svg"
   xmlns:xlink="http://www.w3.org/1999/xlink"
   xmlns:sodipodi="http://sodipodi.sourceforge.net/DTD/sodipodi-0.dtd"
   xmlns:inkscape="http://www.inkscape.org/namespaces/inkscape"
   width="291.32718"
   height="562.8103"
   viewBox="0 0 291.32717 562.81027"
   id="svg2"
   version="1.1"
   inkscape:version="0.91 r13725"
   sodipodi:docname="teardrop_case_III.svg"
   inkscape:export-filename="/home/jamitch/jaks.git/gitsync_spparks.cloned/doc/JPG/teardrop_case_III.png"
   inkscape:export-xdpi="61.786201"
   inkscape:export-ydpi="61.786201">
  <sodipodi:namedview
     id="base"
     pagecolor="#ffffff"
     bordercolor="#666666"
     borderopacity="1.0"
     inkscape:pageopacity="0.0"
     inkscape:pageshadow="2"
     inkscape:zoom="1.1797936"
     inkscape:cx="-15.507767"
     inkscape:cy="281.40515"
     inkscape:document-units="px"
     inkscape:current-layer="layer1"
     showgrid="false"
     showborder="false"
     fit-margin-top="0"
     fit-margin-left="0"
     fit-margin-right="0"
     fit-margin-bottom="0"
     inkscape:window-width="1390"
     inkscape:window-height="895"
     inkscape:window-x="265"
     inkscape:window-y="130"
     inkscape:window-maximized="0"
     units="px" />
  <defs
     id="defs4">
    <clipPath
       id="clipPath3375"
       clipPathUnits="userSpaceOnUse">
      <path
         inkscape:connector-curvature="0"
         id="path3377"
         d="m 936,617.398 4329,0 0,3440 -4329,0 0,-3440 z" />
    </clipPath>
    <clipPath
       id="clipPath3507"
       clipPathUnits="userSpaceOnUse">
      <path
         inkscape:connector-curvature="0"
         id="path3509"
         d="" />
    </clipPath>
    <clipPath
       clipPathUnits="userSpaceOnUse"
       id="clipPath4504">
      <rect
         style="opacity:1;fill:none;fill-opacity:1;stroke:#0000ff;stroke-width:1.60000002;stroke-miterlimit:4;stroke-dasharray:none;stroke-dashoffset:0"
         id="rect4506"
         width="232.56624"
         height="365.59412"
         x="192.97278"
         y="-432.32654"
         transform="scale(1,-1)" />
    </clipPath>
    <clipPath
       id="clipPath4604"
       clipPathUnits="userSpaceOnUse">
      <path
         inkscape:connector-curvature="0"
         id="path4606"
         d="m 936,617.398 4329,0 0,3440 -4329,0 0,-3440 z" />
    </clipPath>
    <clipPath
       id="clipPath4736"
       clipPathUnits="userSpaceOnUse">
      <path
         inkscape:connector-curvature="0"
         id="path4738"
         d="" />
    </clipPath>
    <clipPath
       clipPathUnits="userSpaceOnUse"
       id="clipPath4933">
      <rect
         style="opacity:1;fill:none;fill-opacity:1;stroke:#0000ff;stroke-width:1.60000002;stroke-miterlimit:4;stroke-dasharray:none;stroke-dashoffset:0"
         id="rect4935"
         width="237.21756"
         height="324.66245"
         x="191.1481"
         y="-397.71594"
         transform="scale(1,-1)" />
    </clipPath>
    <clipPath
       id="clipPath4995"
       clipPathUnits="userSpaceOnUse">
      <path
         inkscape:connector-curvature="0"
         id="path4997"
         d="m 936,617.398 4329,0 0,3440 -4329,0 0,-3440 z" />
    </clipPath>
    <clipPath
       id="clipPath5095"
       clipPathUnits="userSpaceOnUse">
      <path
         inkscape:connector-curvature="0"
         id="path5097"
         d="" />
    </clipPath>
    <clipPath
       clipPathUnits="userSpaceOnUse"
       id="clipPath5246">
      <rect
         style="opacity:1;fill:none;fill-opacity:1;stroke:#0000ff;stroke-width:1.60000002;stroke-miterlimit:4;stroke-dasharray:none;stroke-dashoffset:0"
         id="rect5248"
         width="190.70432"
         height="328.38351"
         x="215.28802"
         y="-398.18112"
         transform="scale(1,-1)" />
    </clipPath>
    <clipPath
       id="clipPath5293"
       clipPathUnits="userSpaceOnUse">
      <path
         inkscape:connector-curvature="0"
         id="path5295"
         d="m 936,617.398 4329,0 0,3440 -4329,0 0,-3440 z" />
    </clipPath>
    <clipPath
       id="clipPath5425"
       clipPathUnits="userSpaceOnUse">
      <path
         inkscape:connector-curvature="0"
         id="path5427"
         d="" />
    </clipPath>
    <clipPath
       clipPathUnits="userSpaceOnUse"
       id="clipPath5619">
      <rect
         style="opacity:1;fill:none;fill-opacity:1;stroke:#0000ff;stroke-width:1.60000002;stroke-miterlimit:4;stroke-dasharray:none;stroke-dashoffset:0"
         id="rect5621"
         width="128.37656"
         height="270.70709"
         x="246.8634"
         y="-367.94748"
         transform="scale(1,-1)" />
    </clipPath>
    <clipPath
       id="clipPath5662"
       clipPathUnits="userSpaceOnUse">
      <path
         inkscape:connector-curvature="0"
         id="path5664"
         d="m 936,617.398 4329,0 0,3440 -4329,0 0,-3440 z" />
    </clipPath>
    <clipPath
       id="clipPath5794"
       clipPathUnits="userSpaceOnUse">
      <path
         inkscape:connector-curvature="0"
         id="path5796"
         d="" />
    </clipPath>
    <clipPath
       clipPathUnits="userSpaceOnUse"
       id="clipPath5988">
      <rect
         style="opacity:1;fill:none;fill-opacity:1;stroke:#0000ff;stroke-width:1.60000002;stroke-miterlimit:4;stroke-dasharray:none;stroke-dashoffset:0"
         id="rect5990"
         width="128.37654"
         height="268.84659"
         x="245.98672"
         y="-369.3429"
         transform="scale(1,-1)" />
    </clipPath>
    <clipPath
       id="clipPath6031"
       clipPathUnits="userSpaceOnUse">
      <path
         inkscape:connector-curvature="0"
         id="path6033"
         d="m 936,617.398 4329,0 0,3440 -4329,0 0,-3440 z" />
    </clipPath>
    <clipPath
       id="clipPath6131"
       clipPathUnits="userSpaceOnUse">
      <path
         inkscape:connector-curvature="0"
         id="path6133"
         d="" />
    </clipPath>
    <clipPath
       clipPathUnits="userSpaceOnUse"
       id="clipPath6282">
      <rect
         style="opacity:1;fill:none;fill-opacity:1;stroke:#0000ff;stroke-width:1.60000002;stroke-miterlimit:4;stroke-dasharray:none;stroke-dashoffset:0"
         id="rect6284"
         width="184.19247"
         height="324.66245"
         x="218.5535"
         y="-396.26923"
         transform="scale(1,-1)" />
    </clipPath>
    <clipPath
       id="clipPath6325"
       clipPathUnits="userSpaceOnUse">
      <path
         inkscape:connector-curvature="0"
         id="path6327"
         d="m 936,617.398 4329,0 0,3440 -4329,0 0,-3440 z" />
    </clipPath>
    <clipPath
       id="clipPath6457"
       clipPathUnits="userSpaceOnUse">
      <path
         inkscape:connector-curvature="0"
         id="path6459"
         d="" />
    </clipPath>
    <clipPath
       clipPathUnits="userSpaceOnUse"
       id="clipPath6654">
      <rect
         style="opacity:1;fill:none;fill-opacity:1;stroke:#0000ff;stroke-width:1.60000002;stroke-miterlimit:4;stroke-dasharray:none;stroke-dashoffset:0"
         id="rect6656"
         width="228.84517"
         height="317.22034"
         x="195.75246"
         y="-391.66925"
         transform="scale(1,-1)" />
    </clipPath>
  </defs>
  <metadata
     id="metadata7">
    <rdf:RDF>
      <cc:Work
         rdf:about="">
        <dc:format>image/svg+xml</dc:format>
        <dc:type
           rdf:resource="http://purl.org/dc/dcmitype/StillImage" />
        <dc:title />
      </cc:Work>
    </rdf:RDF>
  </metadata>
  <g
     inkscape:label="Layer 1"
     inkscape:groupmode="layer"
     id="layer1"
     transform="translate(-497.93701,166.28485)">
    <g
       transform="matrix(2.2693179,0,0,-2.0934256,-60.285069,606.90699)"
       inkscape:label="ink_ext_XXXXXX"
       id="g5650"
       clip-path="url(#clipPath5988)">
      <g
         transform="scale(0.1,0.1)"
         id="g5652">
        <path
           inkscape:connector-curvature="0"
           id="path5654"
           style="fill:#ffffff;fill-opacity:1;fill-rule:nonzero;stroke:none"
           d="m 0,0 5850,0 0,4410.01 -5850,0 L 0,0 Z" />
        <path
           inkscape:connector-curvature="0"
           id="path5656"
           style="fill:#ffffff;fill-opacity:1;fill-rule:nonzero;stroke:none"
           d="m 936,617.402 4329,0 0,3439.82 -4329,0 0,-3439.82 z" />
        <g
           id="g5658">
          <g
             clip-path="url(#clipPath5662)"
             id="g5660">
            <path
               inkscape:connector-curvature="0"
               id="path5666"
               style="fill:none;stroke:#0000ff;stroke-width:20;stroke-linecap:square;stroke-linejoin:round;stroke-miterlimit:10;stroke-dasharray:none;stroke-opacity:1"
               d="m 3100.48,1066.53 9.92,0.76 10.14,2.25 10.37,3.71 10.59,5.16 10.82,6.55 10.98,7.94 11.18,9.28 11.33,10.6 11.5,11.88 11.63,13.14 11.76,14.37 11.88,15.56 11.99,16.73 12.06,17.88 12.15,18.97 12.21,20.06 12.26,21.09 12.33,22.13 12.33,23.1 12.33,24.06 12.35,24.99 12.3,25.88 12.31,26.75 12.26,27.59 12.17,28.38 12.15,29.16 12.04,29.91 11.94,30.63 11.83,31.3 11.72,31.95 11.57,32.58 11.42,33.17 11.25,33.71 11.07,34.27 10.88,34.75 10.66,35.23 10.46,35.64 10.19,36.07 9.96,36.45 9.69,36.77 9.4,37.11 9.08,37.37 8.81,37.63 8.48,37.85 8.11,38.04 7.78,38.18 7.39,38.32 7.01,38.41 6.62,38.47 6.2,38.52 5.77,38.5 5.32,38.47 4.87,38.43 4.37,38.31 3.9,38.2 3.38,38.03 2.87,37.84 2.32,37.61 1.75,37.39 1.22,37.08 0.61,36.78 0,36.42 -0.61,36.04 -1.26,35.64 -1.87,35.18 -2.57,34.71 -3.25,34.21 -3.94,33.65 -4.64,33.11 -5.39,32.47 -6.13,31.85 -6.9,31.19 -7.66,30.47 -8.5,29.75 -9.28,28.99 -10.1,28.17 -10.98,27.34 -11.83,26.5 -12.71,25.59 -13.59,24.65 -14.54,23.71 -15.43,22.72 -16.41,21.68 -17.36,20.63 -18.37,19.54 -19.33,18.39 -20.38,17.26 -21.41,16.05 -22.45,14.85 -23.53,13.57 -24.61,12.31 -25.71,10.97 -26.85,9.6 -27.97,8.23 -29.14,6.8 -30.34,5.37 -31.5,3.85 -32.73,2.35 -33.97,0.79" />
            <path
               inkscape:connector-curvature="0"
               id="path5668"
               style="fill:none;stroke:#0000ff;stroke-width:20;stroke-linecap:square;stroke-linejoin:round;stroke-miterlimit:10;stroke-dasharray:none;stroke-opacity:1"
               d="m 3100.51,1066.53 -9.89,0.76 -10.16,2.25 -10.39,3.71 -10.57,5.16 -10.81,6.55 -11,7.94 -11.15,9.28 -11.36,10.6 -11.49,11.88 -11.62,13.14 -11.78,14.37 -11.88,15.56 -11.98,16.74 -12.06,17.87 -12.16,18.97 -12.21,20.07 -12.27,21.09 -12.3,22.12 -12.33,23.1 -12.35,24.06 -12.34,24.99 -12.32,25.88 -12.29,26.75 -12.26,27.59 -12.18,28.39 -12.13,29.16 -12.06,29.91 -11.93,30.62 -11.85,31.3 -11.7,31.95 -11.58,32.58 -11.42,33.17 -11.25,33.72 -11.06,34.26 -10.9,34.75 -10.66,35.23 -10.43,35.65 -10.21,36.08 -9.96,36.43 -9.67,36.79 -9.41,37.09 -9.09,37.37 -8.82,37.63 -8.45,37.85 -8.12,38.04 -7.8,38.2 -7.39,38.32 -7.02,38.41 -6.61,38.47 -6.2,38.51 -5.76,38.5 -5.33,38.47 -4.85,38.42 -4.38,38.32 -3.9,38.18 -3.38,38.04 -2.86,37.85 -2.32,37.63 -1.77,37.36 -1.2,37.1 -0.6,36.77 -0.02,36.43 0.62,36.04 1.24,35.64 1.9,35.17 2.55,34.71 3.25,34.2 3.94,33.67 4.65,33.09 5.38,32.49 6.13,31.86 6.91,31.16 7.66,30.48 8.47,29.75 9.3,28.98 10.12,28.18 10.98,27.36 11.79,26.49 12.73,25.59 13.61,24.66 14.5,23.71 15.45,22.71 16.41,21.67 17.37,20.63 18.35,19.55 19.35,18.39 20.36,17.24 21.41,16.07 22.47,14.83 23.51,13.59 24.63,12.29 25.7,10.98 26.85,9.61 27.98,8.23 29.15,6.82 30.31,5.33 31.52,3.88 32.73,2.32 33.96,0.8" />
          </g>
        </g>
        <path
           inkscape:connector-curvature="0"
           id="path5670"
           style="fill:none;stroke:#000000;stroke-width:9.99999046;stroke-linecap:square;stroke-linejoin:miter;stroke-miterlimit:10;stroke-dasharray:none;stroke-opacity:1"
           d="M 936,617.402 936,4057.2" />
        <path
           inkscape:connector-curvature="0"
           id="path5672"
           style="fill:none;stroke:#000000;stroke-width:10;stroke-linecap:square;stroke-linejoin:miter;stroke-miterlimit:10;stroke-dasharray:none;stroke-opacity:1"
           d="m 936,4057.22 4329,0" />
        <path
           inkscape:connector-curvature="0"
           id="path5674"
           style="fill:none;stroke:#000000;stroke-width:10;stroke-linecap:square;stroke-linejoin:miter;stroke-miterlimit:10;stroke-dasharray:none;stroke-opacity:1"
           d="m 936,617.402 4329,0" />
        <path
           inkscape:connector-curvature="0"
           id="path5676"
           style="fill:none;stroke:#000000;stroke-width:10;stroke-linecap:square;stroke-linejoin:miter;stroke-miterlimit:10;stroke-dasharray:none;stroke-opacity:1"
           d="m 5265,617.402 0,3439.818" />
        <path
           inkscape:connector-curvature="0"
           id="path5678"
           style="fill:#000000;fill-opacity:1;fill-rule:nonzero;stroke:none"
           d="m 1380.6,617.398 0,40" />
        <path
           inkscape:connector-curvature="0"
           id="path5680"
           style="fill:none;stroke:#000000;stroke-width:5;stroke-linecap:butt;stroke-linejoin:round;stroke-miterlimit:10;stroke-dasharray:none;stroke-opacity:1"
           d="m 1380.6,617.398 0,40" />
        <path
           inkscape:connector-curvature="0"
           id="path5682"
           style="fill:#000000;fill-opacity:1;fill-rule:nonzero;stroke:none"
           d="m 1380.6,4057.2 0,-40" />
        <path
           inkscape:connector-curvature="0"
           id="path5684"
           style="fill:none;stroke:#000000;stroke-width:4.99997997;stroke-linecap:butt;stroke-linejoin:round;stroke-miterlimit:10;stroke-dasharray:none;stroke-opacity:1"
           d="m 1380.6,4057.2 0,-40" />
        <path
           inkscape:connector-curvature="0"
           id="path5686"
           style="fill:#000000;fill-opacity:1;fill-rule:nonzero;stroke:none"
           d="m 1953.9,617.398 0,40" />
        <path
           inkscape:connector-curvature="0"
           id="path5688"
           style="fill:none;stroke:#000000;stroke-width:5;stroke-linecap:butt;stroke-linejoin:round;stroke-miterlimit:10;stroke-dasharray:none;stroke-opacity:1"
           d="m 1953.9,617.398 0,40" />
        <path
           inkscape:connector-curvature="0"
           id="path5690"
           style="fill:#000000;fill-opacity:1;fill-rule:nonzero;stroke:none"
           d="m 1953.9,4057.2 0,-40" />
        <path
           inkscape:connector-curvature="0"
           id="path5692"
           style="fill:none;stroke:#000000;stroke-width:4.99997997;stroke-linecap:butt;stroke-linejoin:round;stroke-miterlimit:10;stroke-dasharray:none;stroke-opacity:1"
           d="m 1953.9,4057.2 0,-40" />
        <path
           inkscape:connector-curvature="0"
           id="path5694"
           style="fill:#000000;fill-opacity:1;fill-rule:nonzero;stroke:none"
           d="m 2527.19,617.398 0,40" />
        <path
           inkscape:connector-curvature="0"
           id="path5696"
           style="fill:none;stroke:#000000;stroke-width:4.99997997;stroke-linecap:butt;stroke-linejoin:round;stroke-miterlimit:10;stroke-dasharray:none;stroke-opacity:1"
           d="m 2527.19,617.398 0,40" />
        <path
           inkscape:connector-curvature="0"
           id="path5698"
           style="fill:#000000;fill-opacity:1;fill-rule:nonzero;stroke:none"
           d="m 2527.21,4057.2 0,-40" />
        <path
           inkscape:connector-curvature="0"
           id="path5700"
           style="fill:none;stroke:#000000;stroke-width:4.99997997;stroke-linecap:butt;stroke-linejoin:round;stroke-miterlimit:10;stroke-dasharray:none;stroke-opacity:1"
           d="m 2527.21,4057.2 0,-40" />
        <path
           inkscape:connector-curvature="0"
           id="path5702"
           style="fill:#000000;fill-opacity:1;fill-rule:nonzero;stroke:none"
           d="m 3100.5,617.398 0,40" />
        <path
           inkscape:connector-curvature="0"
           id="path5704"
           style="fill:none;stroke:#000000;stroke-width:5;stroke-linecap:butt;stroke-linejoin:round;stroke-miterlimit:10;stroke-dasharray:none;stroke-opacity:1"
           d="m 3100.5,617.398 0,40" />
        <path
           inkscape:connector-curvature="0"
           id="path5706"
           style="fill:#000000;fill-opacity:1;fill-rule:nonzero;stroke:none"
           d="m 3100.49,4057.2 0,-40" />
        <path
           inkscape:connector-curvature="0"
           id="path5708"
           style="fill:none;stroke:#000000;stroke-width:4.99997997;stroke-linecap:butt;stroke-linejoin:round;stroke-miterlimit:10;stroke-dasharray:none;stroke-opacity:1"
           d="m 3100.49,4057.2 0,-40" />
        <path
           inkscape:connector-curvature="0"
           id="path5710"
           style="fill:#000000;fill-opacity:1;fill-rule:nonzero;stroke:none"
           d="m 3673.8,617.398 0,40" />
        <path
           inkscape:connector-curvature="0"
           id="path5712"
           style="fill:none;stroke:#000000;stroke-width:4.99998999;stroke-linecap:butt;stroke-linejoin:round;stroke-miterlimit:10;stroke-dasharray:none;stroke-opacity:1"
           d="m 3673.8,617.398 0,40" />
        <path
           inkscape:connector-curvature="0"
           id="path5714"
           style="fill:#000000;fill-opacity:1;fill-rule:nonzero;stroke:none"
           d="m 3673.8,4057.2 0,-40" />
        <path
           inkscape:connector-curvature="0"
           id="path5716"
           style="fill:none;stroke:#000000;stroke-width:4.99997997;stroke-linecap:butt;stroke-linejoin:round;stroke-miterlimit:10;stroke-dasharray:none;stroke-opacity:1"
           d="m 3673.8,4057.2 0,-40" />
        <path
           inkscape:connector-curvature="0"
           id="path5718"
           style="fill:#000000;fill-opacity:1;fill-rule:nonzero;stroke:none"
           d="m 4247.1,617.402 0,39.996" />
        <path
           inkscape:connector-curvature="0"
           id="path5720"
           style="fill:none;stroke:#000000;stroke-width:5.00001001;stroke-linecap:butt;stroke-linejoin:round;stroke-miterlimit:10;stroke-dasharray:none;stroke-opacity:1"
           d="m 4247.1,617.402 0,39.996" />
        <path
           inkscape:connector-curvature="0"
           id="path5722"
           style="fill:#000000;fill-opacity:1;fill-rule:nonzero;stroke:none"
           d="m 4247.1,4057.21 0,-40" />
        <path
           inkscape:connector-curvature="0"
           id="path5724"
           style="fill:none;stroke:#000000;stroke-width:5.00001001;stroke-linecap:butt;stroke-linejoin:round;stroke-miterlimit:10;stroke-dasharray:none;stroke-opacity:1"
           d="m 4247.1,4057.21 0,-40" />
        <path
           inkscape:connector-curvature="0"
           id="path5726"
           style="fill:#000000;fill-opacity:1;fill-rule:nonzero;stroke:none"
           d="m 4820.41,617.398 0,40" />
        <path
           inkscape:connector-curvature="0"
           id="path5728"
           style="fill:none;stroke:#000000;stroke-width:5;stroke-linecap:butt;stroke-linejoin:round;stroke-miterlimit:10;stroke-dasharray:none;stroke-opacity:1"
           d="m 4820.41,617.398 0,40" />
        <path
           inkscape:connector-curvature="0"
           id="path5730"
           style="fill:#000000;fill-opacity:1;fill-rule:nonzero;stroke:none"
           d="m 4820.41,4057.21 0,-40.01" />
        <path
           inkscape:connector-curvature="0"
           id="path5732"
           style="fill:none;stroke:#000000;stroke-width:5;stroke-linecap:butt;stroke-linejoin:round;stroke-miterlimit:10;stroke-dasharray:none;stroke-opacity:1"
           d="m 4820.41,4057.21 0,-40.01" />
        <path
           inkscape:connector-curvature="0"
           id="path5734"
           style="fill:#000000;fill-opacity:1;fill-rule:nonzero;stroke:none"
           d="m 936,617.398 40,0" />
        <path
           inkscape:connector-curvature="0"
           id="path5736"
           style="fill:none;stroke:#000000;stroke-width:5;stroke-linecap:butt;stroke-linejoin:round;stroke-miterlimit:10;stroke-dasharray:none;stroke-opacity:1"
           d="m 936,617.398 40,0" />
        <path
           inkscape:connector-curvature="0"
           id="path5738"
           style="fill:#000000;fill-opacity:1;fill-rule:nonzero;stroke:none"
           d="m 5265,617.402 -39.98,0" />
        <path
           inkscape:connector-curvature="0"
           id="path5740"
           style="fill:none;stroke:#000000;stroke-width:5.00001001;stroke-linecap:butt;stroke-linejoin:round;stroke-miterlimit:10;stroke-dasharray:none;stroke-opacity:1"
           d="m 5265,617.402 -39.98,0" />
        <path
           inkscape:connector-curvature="0"
           id="path5742"
           style="fill:#000000;fill-opacity:1;fill-rule:nonzero;stroke:none"
           d="m 936,1190.7 40,0" />
        <path
           inkscape:connector-curvature="0"
           id="path5744"
           style="fill:none;stroke:#000000;stroke-width:5;stroke-linecap:butt;stroke-linejoin:round;stroke-miterlimit:10;stroke-dasharray:none;stroke-opacity:1"
           d="m 936,1190.7 40,0" />
        <path
           inkscape:connector-curvature="0"
           id="path5746"
           style="fill:#000000;fill-opacity:1;fill-rule:nonzero;stroke:none"
           d="m 5265,1190.7 -39.98,0" />
        <path
           inkscape:connector-curvature="0"
           id="path5748"
           style="fill:none;stroke:#000000;stroke-width:5.00001001;stroke-linecap:butt;stroke-linejoin:round;stroke-miterlimit:10;stroke-dasharray:none;stroke-opacity:1"
           d="m 5265,1190.7 -39.98,0" />
        <path
           inkscape:connector-curvature="0"
           id="path5750"
           style="fill:#000000;fill-opacity:1;fill-rule:nonzero;stroke:none"
           d="m 936,1764 40,0" />
        <path
           inkscape:connector-curvature="0"
           id="path5752"
           style="fill:none;stroke:#000000;stroke-width:5;stroke-linecap:butt;stroke-linejoin:round;stroke-miterlimit:10;stroke-dasharray:none;stroke-opacity:1"
           d="m 936,1764 40,0" />
        <path
           inkscape:connector-curvature="0"
           id="path5754"
           style="fill:#000000;fill-opacity:1;fill-rule:nonzero;stroke:none"
           d="m 5265,1764 -39.98,0" />
        <path
           inkscape:connector-curvature="0"
           id="path5756"
           style="fill:none;stroke:#000000;stroke-width:5.00001001;stroke-linecap:butt;stroke-linejoin:round;stroke-miterlimit:10;stroke-dasharray:none;stroke-opacity:1"
           d="m 5265,1764 -39.98,0" />
        <path
           inkscape:connector-curvature="0"
           id="path5758"
           style="fill:#000000;fill-opacity:1;fill-rule:nonzero;stroke:none"
           d="m 936,2337.3 40,0" />
        <path
           inkscape:connector-curvature="0"
           id="path5760"
           style="fill:none;stroke:#000000;stroke-width:5.00001001;stroke-linecap:butt;stroke-linejoin:round;stroke-miterlimit:10;stroke-dasharray:none;stroke-opacity:1"
           d="m 936,2337.3 40,0" />
        <path
           inkscape:connector-curvature="0"
           id="path5762"
           style="fill:#000000;fill-opacity:1;fill-rule:nonzero;stroke:none"
           d="m 5265,2337.3 -39.98,0" />
        <path
           inkscape:connector-curvature="0"
           id="path5764"
           style="fill:none;stroke:#000000;stroke-width:5.00001001;stroke-linecap:butt;stroke-linejoin:round;stroke-miterlimit:10;stroke-dasharray:none;stroke-opacity:1"
           d="m 5265,2337.3 -39.98,0" />
        <path
           inkscape:connector-curvature="0"
           id="path5766"
           style="fill:#000000;fill-opacity:1;fill-rule:nonzero;stroke:none"
           d="m 936.004,2910.61 39.996,0" />
        <path
           inkscape:connector-curvature="0"
           id="path5768"
           style="fill:none;stroke:#000000;stroke-width:5.00001001;stroke-linecap:butt;stroke-linejoin:round;stroke-miterlimit:10;stroke-dasharray:none;stroke-opacity:1"
           d="m 936.004,2910.61 39.996,0" />
        <path
           inkscape:connector-curvature="0"
           id="path5770"
           style="fill:#000000;fill-opacity:1;fill-rule:nonzero;stroke:none"
           d="m 5265,2910.6 -39.98,0" />
        <path
           inkscape:connector-curvature="0"
           id="path5772"
           style="fill:none;stroke:#000000;stroke-width:5.00001001;stroke-linecap:butt;stroke-linejoin:round;stroke-miterlimit:10;stroke-dasharray:none;stroke-opacity:1"
           d="m 5265,2910.6 -39.98,0" />
        <path
           inkscape:connector-curvature="0"
           id="path5774"
           style="fill:#000000;fill-opacity:1;fill-rule:nonzero;stroke:none"
           d="m 935.996,3483.89 40,0" />
        <path
           inkscape:connector-curvature="0"
           id="path5776"
           style="fill:none;stroke:#000000;stroke-width:4.99997997;stroke-linecap:butt;stroke-linejoin:round;stroke-miterlimit:10;stroke-dasharray:none;stroke-opacity:1"
           d="m 935.996,3483.89 40,0" />
        <path
           inkscape:connector-curvature="0"
           id="path5778"
           style="fill:#000000;fill-opacity:1;fill-rule:nonzero;stroke:none"
           d="m 5265,3483.91 -39.98,0" />
        <path
           inkscape:connector-curvature="0"
           id="path5780"
           style="fill:none;stroke:#000000;stroke-width:5.00001001;stroke-linecap:butt;stroke-linejoin:round;stroke-miterlimit:10;stroke-dasharray:none;stroke-opacity:1"
           d="m 5265,3483.91 -39.98,0" />
        <path
           inkscape:connector-curvature="0"
           id="path5782"
           style="fill:#000000;fill-opacity:1;fill-rule:nonzero;stroke:none"
           d="m 936,4057.2 40,0" />
        <path
           inkscape:connector-curvature="0"
           id="path5784"
           style="fill:none;stroke:#000000;stroke-width:4.99997997;stroke-linecap:butt;stroke-linejoin:round;stroke-miterlimit:10;stroke-dasharray:none;stroke-opacity:1"
           d="m 936,4057.2 40,0" />
        <path
           inkscape:connector-curvature="0"
           id="path5786"
           style="fill:#000000;fill-opacity:1;fill-rule:nonzero;stroke:none"
           d="m 5265,4057.22 -39.98,0" />
        <path
           inkscape:connector-curvature="0"
           id="path5788"
           style="fill:none;stroke:#000000;stroke-width:5.00001001;stroke-linecap:butt;stroke-linejoin:round;stroke-miterlimit:10;stroke-dasharray:none;stroke-opacity:1"
           d="m 5265,4057.22 -39.98,0" />
        <g
           id="g5790">
          <g
             clip-path="url(#clipPath5794)"
             id="g5792">
            <g
               transform="matrix(960,0,0,-4.8,-958.92,3128.28)"
               id="g5798">
              <rect
                 id="rect5800"
                 style="fill:#231f20;fill-opacity:1;fill-rule:nonzero"
                 transform="matrix(1,0,0,-1,0,1)"
                 height="1"
                 width="1"
                 y="0"
                 x="0" />
            </g>
          </g>
        </g>
        <g
           transform="scale(10,10)"
           id="g5802">
          <text
             id="text5804"
             style="font-variant:normal;font-weight:normal;font-size:23.91040039px;font-family:CMSY10;-inkscape-font-specification:CMSY10;writing-mode:lr-tb;fill:#000000;fill-opacity:1;fill-rule:nonzero;stroke:none"
             transform="matrix(1,0,0,-1,112.313,40.7512)">
            <tspan
               id="tspan5806"
               y="0"
               x="0">−</tspan>
          </text>
          <text
             id="text5808"
             style="font-variant:normal;font-weight:normal;font-size:23.91040039px;font-family:CMR17;-inkscape-font-specification:CMR17;writing-mode:lr-tb;fill:#000000;fill-opacity:1;fill-rule:nonzero;stroke:none"
             transform="matrix(1,0,0,-1,130.913,40.7512)">
            <tspan
               id="tspan5810"
               sodipodi:role="line"
               y="0"
               x="0 10.919921 21.839842">150</tspan>
          </text>
          <text
             id="text5812"
             style="font-variant:normal;font-weight:normal;font-size:23.91040039px;font-family:CMSY10;-inkscape-font-specification:CMSY10;writing-mode:lr-tb;fill:#000000;fill-opacity:1;fill-rule:nonzero;stroke:none"
             transform="matrix(1,0,0,-1,169.6431,40.7512)">
            <tspan
               id="tspan5814"
               y="0"
               x="0">−</tspan>
          </text>
          <text
             id="text5816"
             style="font-variant:normal;font-weight:normal;font-size:23.91040039px;font-family:CMR17;-inkscape-font-specification:CMR17;writing-mode:lr-tb;fill:#000000;fill-opacity:1;fill-rule:nonzero;stroke:none"
             transform="matrix(1,0,0,-1,188.2431,40.7512)">
            <tspan
               id="tspan5818"
               sodipodi:role="line"
               y="0"
               x="0 10.919921 21.839853">100</tspan>
          </text>
          <text
             id="text5820"
             style="font-variant:normal;font-weight:normal;font-size:23.91040039px;font-family:CMSY10;-inkscape-font-specification:CMSY10;writing-mode:lr-tb;fill:#000000;fill-opacity:1;fill-rule:nonzero;stroke:none"
             transform="matrix(1,0,0,-1,232.456,40.630887)">
            <tspan
               id="tspan5822"
               y="0"
               x="0">−</tspan>
          </text>
          <text
             id="text5824"
             style="font-variant:normal;font-weight:normal;font-size:23.91040039px;font-family:CMR17;-inkscape-font-specification:CMR17;writing-mode:lr-tb;fill:#000000;fill-opacity:1;fill-rule:nonzero;stroke:none"
             transform="matrix(1,0,0,-1,251.056,40.630887)">
            <tspan
               id="tspan5826"
               sodipodi:role="line"
               y="0"
               x="0 10.919933">50</tspan>
            <tspan
               id="tspan5828"
               sodipodi:role="line"
               y="-0.0730469"
               x="53.510899 105.35773 116.27766 157.20462 168.12453 179.04443 214.53416 225.45407 236.37398">050100150</tspan>
          </text>
          <text
             id="text5830"
             style="font-variant:normal;font-size:23.91040039px;font-family:'Nimbus Sans L';-inkscape-font-specification:NimbusSanL-Regu;writing-mode:lr-tb;fill:#000000;fill-opacity:1;fill-rule:nonzero;stroke:none"
             transform="matrix(1,0,0,-1,242.97,13.080134)">
            <tspan
               id="tspan5832"
               sodipodi:role="line"
               y="0"
               x="0 12 19.919926 33.239841 45.239841 50.519924 69.119919 77.039848 89.039848 94.319923 100.91992 114.23984 126.23984">x-axis(sites)</tspan>
          </text>
          <text
             id="text5834"
             style="font-variant:normal;font-weight:normal;font-size:23.91040039px;font-family:CMSY10;-inkscape-font-specification:CMSY10;writing-mode:lr-tb;fill:#000000;fill-opacity:1;fill-rule:nonzero;stroke:none"
             transform="matrix(1,0,0,-1,38.106,55.816034)">
            <tspan
               id="tspan5836"
               y="0"
               x="0">−</tspan>
          </text>
          <text
             id="text5838"
             style="font-variant:normal;font-weight:normal;font-size:23.91040039px;font-family:CMR17;-inkscape-font-specification:CMR17;writing-mode:lr-tb;fill:#000000;fill-opacity:1;fill-rule:nonzero;stroke:none"
             transform="matrix(1,0,0,-1,56.706,55.816034)">
            <tspan
               id="tspan5840"
               sodipodi:role="line"
               y="0"
               x="0 10.919927 21.839853">150</tspan>
          </text>
          <text
             id="text5842"
             style="font-variant:normal;font-weight:normal;font-size:23.91040039px;font-family:CMSY10;-inkscape-font-specification:CMSY10;writing-mode:lr-tb;fill:#000000;fill-opacity:1;fill-rule:nonzero;stroke:none"
             transform="matrix(1,0,0,-1,38.106,113.02583)">
            <tspan
               id="tspan5844"
               y="0"
               x="0">−</tspan>
          </text>
          <text
             id="text5846"
             style="font-variant:normal;font-weight:normal;font-size:23.91040039px;font-family:CMR17;-inkscape-font-specification:CMR17;writing-mode:lr-tb;fill:#000000;fill-opacity:1;fill-rule:nonzero;stroke:none"
             transform="matrix(1,0,0,-1,56.706,113.02583)">
            <tspan
               id="tspan5848"
               sodipodi:role="line"
               y="0"
               x="0 10.919927 21.839853">100</tspan>
          </text>
          <text
             id="text5850"
             style="font-variant:normal;font-weight:normal;font-size:23.91040039px;font-family:CMSY10;-inkscape-font-specification:CMSY10;writing-mode:lr-tb;fill:#000000;fill-opacity:1;fill-rule:nonzero;stroke:none"
             transform="matrix(1,0,0,-1,49.07202,170.47583)">
            <tspan
               id="tspan5852"
               y="0"
               x="0">−</tspan>
          </text>
          <text
             id="text5854"
             style="font-variant:normal;font-weight:normal;font-size:23.91040039px;font-family:CMR17;-inkscape-font-specification:CMR17;writing-mode:lr-tb;fill:#000000;fill-opacity:1;fill-rule:nonzero;stroke:none"
             transform="matrix(1,0,0,-1,67.67202,170.47583)">
            <tspan
               id="tspan5856"
               sodipodi:role="line"
               y="0"
               x="0 10.919927">50</tspan>
            <tspan
               id="tspan5858"
               y="-57.282001"
               x="10.9621">0</tspan>
            <tspan
               id="tspan5860"
               sodipodi:role="line"
               y="-114.6121"
               x="-0.0027000001 10.917227">50</tspan>
            <tspan
               id="tspan5862"
               sodipodi:role="line"
               y="-171.9422"
               x="-10.9687 -0.048773222 10.871154">100</tspan>
            <tspan
               id="tspan5864"
               sodipodi:role="line"
               y="-229.27229"
               x="-10.9687 -0.048773222 10.871154">150</tspan>
          </text>
          <text
             id="text5866"
             style="font-variant:normal;font-size:23.91040039px;font-family:'Nimbus Sans L';-inkscape-font-specification:NimbusSanL-Regu;writing-mode:lr-tb;fill:#000000;fill-opacity:1;fill-rule:nonzero;stroke:none"
             transform="matrix(0,1,1,0,22.973,161.557)">
            <tspan
               id="tspan5868"
               sodipodi:role="line"
               y="0"
               x="0 12 19.919926 33.239853 45.239853 50.519936 69.119934 77.039856 89.039856 94.319939 100.91994 114.23985 126.23985">y-axis(sites)</tspan>
          </text>
          <text
             id="text5870"
             style="font-variant:normal;font-size:23.91040039px;font-family:'Nimbus Sans L';-inkscape-font-specification:NimbusSanL-Regu;writing-mode:lr-tb;fill:#000000;fill-opacity:1;fill-rule:nonzero;stroke:none"
             transform="matrix(1,0,0,-1,221.117,410.667)">
            <tspan
               id="tspan5872"
               sodipodi:role="line"
               y="0"
               x="0 11.760163 25.080078 38.399994 46.31992 59.639835 67.559761 80.879677 100.7996 112.7996 126.11951 138.11951 157.91949 164.5195 171.11949">TeardropcaseIII</tspan>
          </text>
        </g>
      </g>
    </g>
    <g
       id="g7221"
       transform="matrix(6.2772958,0,0,6.2772958,-870.30224,-839.7027)"
       ns0:preamble="/home/jamitch/jaks.git/conferences.cloned/ornl.nlmodels.cse.october.2015/images/inkscape_preamble.tex"
       ns0:text="Case III\n\n">
      <defs
         id="defs7223">
        <g
           id="g7225">
          <symbol
             id="textext-54cd9e64-0"
             overflow="visible"
             style="overflow:visible">
            <path
               id="path7228"
               d=""
               style="stroke:none"
               inkscape:connector-curvature="0" />
          </symbol>
          <symbol
             id="textext-54cd9e64-1"
             overflow="visible"
             style="overflow:visible">
            <path
               id="path7231"
               d="m 0.5625,-3.40625 c 0,2.0625 1.609375,3.625 3.46875,3.625 1.625,0 2.59375,-1.390625 2.59375,-2.546875 C 6.625,-2.421875 6.625,-2.5 6.5,-2.5 6.390625,-2.5 6.390625,-2.4375 6.375,-2.328125 6.296875,-0.90625 5.234375,-0.09375 4.140625,-0.09375 c -0.609375,0 -2.5625,-0.328125 -2.5625,-3.3125 0,-2.96875 1.953125,-3.3125 2.5625,-3.3125 1.078125,0 1.96875,0.90625 2.171875,2.359375 0.015625,0.140625 0.015625,0.171875 0.15625,0.171875 0.15625,0 0.15625,-0.03125 0.15625,-0.234375 l 0,-2.359375 c 0,-0.171875 0,-0.25 -0.109375,-0.25 -0.03125,0 -0.078125,0 -0.15625,0.125 l -0.5,0.734375 C 5.5,-6.53125 4.984375,-7.03125 4.03125,-7.03125 c -1.875,0 -3.46875,1.59375 -3.46875,3.625 z m 0,0"
               style="stroke:none"
               inkscape:connector-curvature="0" />
          </symbol>
          <symbol
             id="textext-54cd9e64-2"
             overflow="visible"
             style="overflow:visible">
            <path
               id="path7234"
               d="m 3.3125,-0.75 c 0.046875,0.390625 0.3125,0.8125 0.78125,0.8125 0.21875,0 0.828125,-0.140625 0.828125,-0.953125 l 0,-0.5625 -0.25,0 0,0.5625 c 0,0.578125 -0.25,0.640625 -0.359375,0.640625 -0.328125,0 -0.375,-0.453125 -0.375,-0.5 l 0,-1.984375 c 0,-0.421875 0,-0.8125 -0.359375,-1.1875 C 3.1875,-4.3125 2.6875,-4.46875 2.21875,-4.46875 c -0.828125,0 -1.515625,0.46875 -1.515625,1.125 0,0.296875 0.203125,0.46875 0.46875,0.46875 0.28125,0 0.453125,-0.203125 0.453125,-0.453125 0,-0.125 -0.046875,-0.453125 -0.515625,-0.453125 C 1.390625,-4.140625 1.875,-4.25 2.1875,-4.25 c 0.5,0 1.0625,0.390625 1.0625,1.28125 l 0,0.359375 c -0.515625,0.03125 -1.203125,0.0625 -1.828125,0.359375 -0.75,0.34375 -1,0.859375 -1,1.296875 0,0.8125 0.96875,1.0625 1.59375,1.0625 0.65625,0 1.109375,-0.40625 1.296875,-0.859375 z M 3.25,-2.390625 l 0,1 c 0,0.9375 -0.71875,1.28125 -1.171875,1.28125 -0.484375,0 -0.890625,-0.34375 -0.890625,-0.84375 0,-0.546875 0.421875,-1.375 2.0625,-1.4375 z m 0,0"
               style="stroke:none"
               inkscape:connector-curvature="0" />
          </symbol>
          <symbol
             id="textext-54cd9e64-3"
             overflow="visible"
             style="overflow:visible">
            <path
               id="path7237"
               d="m 2.078125,-1.9375 c 0.21875,0.046875 1.03125,0.203125 1.03125,0.921875 0,0.5 -0.34375,0.90625 -1.125,0.90625 -0.84375,0 -1.203125,-0.5625 -1.390625,-1.421875 C 0.5625,-1.65625 0.5625,-1.6875 0.453125,-1.6875 c -0.125,0 -0.125,0.0625 -0.125,0.234375 l 0,1.328125 c 0,0.171875 0,0.234375 0.109375,0.234375 0.046875,0 0.0625,-0.015625 0.25,-0.203125 0.015625,-0.015625 0.015625,-0.03125 0.203125,-0.21875 0.4375,0.40625 0.890625,0.421875 1.09375,0.421875 1.140625,0 1.609375,-0.671875 1.609375,-1.390625 0,-0.515625 -0.296875,-0.828125 -0.421875,-0.9375 C 2.84375,-2.546875 2.453125,-2.625 2.03125,-2.703125 1.46875,-2.8125 0.8125,-2.9375 0.8125,-3.515625 c 0,-0.359375 0.25,-0.765625 1.109375,-0.765625 1.09375,0 1.15625,0.90625 1.171875,1.203125 0,0.09375 0.09375,0.09375 0.109375,0.09375 0.140625,0 0.140625,-0.046875 0.140625,-0.234375 l 0,-1.015625 c 0,-0.15625 0,-0.234375 -0.109375,-0.234375 -0.046875,0 -0.078125,0 -0.203125,0.125 -0.03125,0.03125 -0.125,0.125 -0.171875,0.15625 -0.375,-0.28125 -0.78125,-0.28125 -0.9375,-0.28125 -1.21875,0 -1.59375,0.671875 -1.59375,1.234375 0,0.34375 0.15625,0.625 0.421875,0.84375 0.328125,0.25 0.609375,0.3125 1.328125,0.453125 z m 0,0"
               style="stroke:none"
               inkscape:connector-curvature="0" />
          </symbol>
          <symbol
             id="textext-54cd9e64-4"
             overflow="visible"
             style="overflow:visible">
            <path
               id="path7240"
               d="M 1.109375,-2.515625 C 1.171875,-4 2.015625,-4.25 2.359375,-4.25 c 1.015625,0 1.125,1.34375 1.125,1.734375 z m 0,0.21875 2.78125,0 c 0.21875,0 0.25,0 0.25,-0.21875 0,-0.984375 -0.546875,-1.953125 -1.78125,-1.953125 -1.15625,0 -2.078125,1.03125 -2.078125,2.28125 0,1.328125 1.046875,2.296875 2.1875,2.296875 C 3.6875,0.109375 4.140625,-1 4.140625,-1.1875 4.140625,-1.28125 4.0625,-1.3125 4,-1.3125 c -0.078125,0 -0.109375,0.0625 -0.125,0.140625 -0.34375,1.03125 -1.25,1.03125 -1.34375,1.03125 -0.5,0 -0.890625,-0.296875 -1.125,-0.671875 -0.296875,-0.46875 -0.296875,-1.125 -0.296875,-1.484375 z m 0,0"
               style="stroke:none"
               inkscape:connector-curvature="0" />
          </symbol>
          <symbol
             id="textext-54cd9e64-5"
             overflow="visible"
             style="overflow:visible">
            <path
               id="path7243"
               d="M 2.25,-6.03125 C 2.25,-6.390625 2.265625,-6.5 3.0625,-6.5 l 0.25,0 0,-0.3125 c -0.34375,0.03125 -1.125,0.03125 -1.515625,0.03125 -0.375,0 -1.171875,0 -1.515625,-0.03125 l 0,0.3125 0.25,0 c 0.796875,0 0.828125,0.109375 0.828125,0.46875 l 0,5.25 c 0,0.359375 -0.03125,0.46875 -0.828125,0.46875 l -0.25,0 0,0.3125 c 0.34375,-0.03125 1.140625,-0.03125 1.515625,-0.03125 0.390625,0 1.171875,0 1.515625,0.03125 l 0,-0.3125 -0.25,0 C 2.265625,-0.3125 2.25,-0.421875 2.25,-0.78125 Z m 0,0"
               style="stroke:none"
               inkscape:connector-curvature="0" />
          </symbol>
        </g>
      </defs>
      <g
         id="textext-54cd9e64-6">
        <g
           id="g7246"
           style="fill:#000000;fill-opacity:1">
          <use
             id="use7248"
             y="134.765"
             x="223.43201"
             xlink:href="#textext-54cd9e64-1"
             width="100%"
             height="100%" />
          <use
             id="use7250"
             y="134.765"
             x="230.62698"
             xlink:href="#textext-54cd9e64-2"
             width="100%"
             height="100%" />
          <use
             id="use7252"
             y="134.765"
             x="235.60829"
             xlink:href="#textext-54cd9e64-3"
             width="100%"
             height="100%" />
          <use
             id="use7254"
             y="134.765"
             x="239.53754"
             xlink:href="#textext-54cd9e64-4"
             width="100%"
             height="100%" />
        </g>
        <g
           id="g7256"
           style="fill:#000000;fill-opacity:1">
          <use
             id="use7258"
             y="134.765"
             x="247.28247"
             xlink:href="#textext-54cd9e64-5"
             width="100%"
             height="100%" />
        </g>
        <g
           id="g7260"
           style="fill:#000000;fill-opacity:1">
          <use
             id="use7262"
             y="134.765"
             x="251.15891"
             xlink:href="#textext-54cd9e64-5"
             width="100%"
             height="100%" />
        </g>
        <g
           id="g7264"
           style="fill:#000000;fill-opacity:1">
          <use
             id="use7266"
             y="134.765"
             x="255.03535"
             xlink:href="#textext-54cd9e64-5"
             width="100%"
             height="100%" />
        </g>
      </g>
    </g>
  </g>
</svg>
